<svg xmlns="http://www.w3.org/2000/svg" version="1.1" xmlns:xlink="http://www.w3.org/1999/xlink" xmlns:svgjs="http://svgjs.dev/svgjs" viewBox="0 0 800 800"><defs><linearGradient x1="50%" y1="0%" x2="50%" y2="100%" id="ccchaos-grad"><stop stop-color="hsl(206, 75%, 49%)" stop-opacity="1" offset="0%"></stop><stop stop-color="hsl(331, 90%, 56%)" stop-opacity="1" offset="100%"></stop></linearGradient></defs><g stroke-width="2" stroke="url(#ccchaos-grad)" fill="none" stroke-linecap="round"><path d="M383.62 114.94C393.11 110.57 402.64 107.06 412.22 104.73 421.82 103.34 431.49 103.59 441.21 105.5 450.99 108.62 460.86 113.25 470.83 119.13 480.89 125.66 491.07 132.9 501.38 140.51 511.8 147.9 522.36 155.14 533.02 162.03 543.79 168.09 554.64 173.6 565.52 178.56 576.41 182.61 587.24 186.24 597.89 189.61 608.39 192.4 618.56 195.23 628.25 198.27 637.54 201.2 646.14 204.61 653.87 208.61 660.95 212.84 666.96 217.8 671.78 223.49 675.75 229.56 678.42 236.36 679.74 243.81 680.24 251.63 679.48 260.02 677.53 268.86 675.09 277.98 671.78 287.44 667.79 297.13 663.93 306.99 659.88 316.99 655.88 327.03 652.74 337.15 650.13 347.25 648.28 357.25 647.81 367.28 648.34 377.16 649.92 386.84 652.95 396.52 656.79 405.74 661.2 414.5 666.49 423.25 671.85 431.55 676.98 439.41 682.19 447.3 686.64 454.82 690.11 462.02 692.96 469.36 694.48 476.51 694.57 483.57 693.69 490.97 691.29 498.49 687.45 506.26 682.62 514.61 676.47 523.43 669.17 532.83 661.14 542.98 652.21 553.83 642.57 565.36 632.55 577.53 622.07 590.21 611.32 603.2 600.49 616.24 589.57 629.05 578.67 641.21 567.9 652.44 557.24 662.27 546.75 670.24 536.47 676.37 526.37 680.14 516.45 681.38 506.74 680.67 497.18 677.71 487.74 672.85 478.47 667.26 469.26 660.96 460.1 654.71 451.04 649.84 441.97 646.45 432.87 645.15 423.81 646.8 414.69 651.05 405.5 657.78 396.32 666.92 387.05 677.43 377.71 688.36 368.36 699.08 359.15 707.94 350.12 714.15 341.08 717.69 332.23 717.67 323.58 714.14 314.96 707.77 306.56 698.62 298.43 687.42 290.33 675.17 282.51 662.37 275 649.82 267.53 638.3 260.37 628.11 253.56 619.58 246.77 613.11 240.31 608.42 234.2 605.32 225.18 603.81 208.59 605.09 200.93 605.58 193.29 604.89 178.73 596.6 171.7 588.72 166.82 582.29 162.07 574.77 157.48 566.35 152.65 557.37 147.99 547.73 143.53 537.62 138.89 527.2 134.5 516.51 130.42 505.7 126.27 494.78 122.5 483.85 119.17 473.02 115.91 462.18 113.17 451.48 111.03 440.99 109.07 430.5 107.78 420.23 107.21 410.21 106.91 400.19 107.37 390.62 108.56 381.51 110.02 372.37 112.18 363.64 114.99 355.29 118 346.87 121.6 338.76 125.72 330.93 129.94 322.94 134.6 315.13 139.65 307.44 144.66 299.48 149.98 291.52 155.56 283.5 160.99 275.1 166.62 266.54 172.41 257.76 178 248.56 183.72 239.13 189.57 229.5 195.19 219.56 200.94 209.54 206.82 199.55 212.5 189.59 218.34 179.95 224.36 170.83 230.21 162.2 236.29 154.42 242.59 147.71 248.79 141.89 255.25 137.32 261.99 134.09 268.66 131.74 275.63 130.6 282.9 130.53 290.14 130.81 297.68 131.67 305.53 132.83 313.36 133.47 321.49 133.83 329.9 133.66 338.3 132.32 346.99 130.22 355.95 127.38 364.9 123.48 374.12 119.23 383.61 114.95" stroke-dasharray="4 8" transform="rotate(0, 400, 400)" opacity="0.09"></path><path d="M387.47 125.97C396.67 121.64 405.96 118.13 415.32 115.71 424.7 114.18 434.17 114.17 443.73 115.75 453.33 118.48 463.04 122.69 472.84 128.15 482.72 134.33 492.72 141.28 502.82 148.72 513 156.08 523.29 163.43 533.63 170.54 544.03 176.98 554.44 182.94 564.81 188.4 575.13 192.99 585.32 197.15 595.25 200.96 604.97 204.12 614.3 207.19 623.08 210.31 631.44 213.16 639.09 216.34 645.86 219.94 652 223.61 657.12 227.87 661.1 232.76 664.32 237.9 666.34 243.71 667.15 250.14 667.26 256.87 666.26 264.17 664.22 271.96 661.81 280 658.67 288.44 654.96 297.18 651.44 306.08 647.79 315.2 644.23 324.44 641.48 333.76 639.24 343.14 637.67 352.51 637.37 361.9 637.96 371.23 639.48 380.44 642.33 389.66 645.88 398.52 649.95 407.04 654.85 415.55 659.81 423.74 664.59 431.63 669.49 439.57 673.74 447.29 677.13 454.84 680.03 462.57 681.74 470.26 682.18 478.02 681.77 486.11 679.99 494.44 676.86 503.11 672.84 512.3 667.57 521.97 661.18 532.19 654.07 542.97 646.05 554.31 637.29 566.14 628.1 578.32 618.4 590.74 608.32 603.15 598.11 615.32 587.7 626.95 577.23 637.66 566.81 647.29 556.41 655.37 546.12 661.57 535.98 666.02 525.96 668.26 516.09 668.24 506.4 666.6 496.84 663.1 487.4 658.09 478.12 652.71 468.91 646.95 459.79 641.47 450.75 637.47 441.75 634.97 432.76 634.46 423.83 636.67 414.88 641.23 405.91 647.98 396.96 656.87 387.97 666.94 378.95 677.34 369.94 687.53 361.1 696.05 352.47 702.15 343.84 705.88 335.41 706.36 327.22 703.61 319.03 698.2 311.09 690.11 303.42 679.94 295.76 668.57 288.39 656.42 281.32 644.18 274.26 632.62 267.51 622.02 261.08 612.75 254.64 605.24 248.52 599.31 242.71 594.9 234.08 591.39 218.08 589.9 210.61 589.94 203.12 589.61 188.72 583.93 181.73 578.02 176.87 573.09 172.15 567.1 167.57 560.19 162.77 552.76 158.13 544.57 153.69 535.8 149.08 526.69 144.73 517.18 140.68 507.4 136.57 497.46 132.84 487.38 129.54 477.27 126.31 467.11 123.6 456.99 121.47 446.96 119.52 436.94 118.23 427.04 117.64 417.3 117.33 407.56 117.75 398.2 118.89 389.2 120.3 380.18 122.39 371.48 125.12 363.07 128.06 354.58 131.57 346.32 135.6 338.25 139.73 330.01 144.31 321.86 149.26 313.76 154.21 305.4 159.46 296.98 164.96 288.46 170.35 279.62 175.94 270.61 181.7 261.42 187.27 251.92 192.97 242.26 198.8 232.5 204.41 222.59 210.15 212.74 216 203.07 221.65 193.59 227.45 184.55 233.41 176.17 239.19 168.37 245.17 161.5 251.35 155.72 257.41 150.79 263.71 147.08 270.25 144.6 276.71 142.88 283.44 142.22 290.45 142.47 297.41 142.93 304.66 143.82 312.2 144.88 319.71 145.36 327.52 145.49 335.61 145.09 343.68 143.56 352.05 141.3 360.69 138.36 369.33 134.45 378.25 130.21 387.46 125.97" stroke-dasharray="6 7" transform="rotate(4.04, 400, 400)" opacity="0.31"></path><path d="M391.94 137C400.88 132.72 409.92 129.21 419.04 126.73 428.18 125.05 437.43 124.81 446.76 126.06 456.14 128.41 465.62 132.18 475.2 137.21 484.83 142.98 494.56 149.6 504.36 156.79 514.21 164.04 524.12 171.39 534.03 178.65 543.96 185.37 553.84 191.72 563.61 197.63 573.29 202.76 582.75 207.45 591.9 211.76 600.81 215.39 609.26 218.83 617.13 222.19 624.58 225.18 631.29 228.33 637.15 231.75 644.56 237 653.23 250.13 654.35 258.2 654.16 263.98 652.98 270.32 650.92 277.14 648.59 284.17 645.65 291.63 642.24 299.44 639.07 307.4 635.82 315.64 632.67 324.08 630.3 332.59 628.38 341.25 627.08 349.99 626.94 358.75 627.58 367.54 629.04 376.33 631.71 385.12 635 393.69 638.74 402.03 643.25 410.39 647.83 418.55 652.26 426.55 656.86 434.63 660.88 442.61 664.17 450.57 667.06 458.72 668.91 466.95 669.63 475.35 669.63 484.07 668.38 493.08 665.89 502.46 662.61 512.26 658.15 522.5 652.62 533.19 646.41 544.26 639.3 555.7 631.42 567.4 623.09 579.2 614.19 590.97 604.86 602.46 595.33 613.46 585.54 623.7 575.59 632.82 565.63 640.78 555.62 647.15 545.64 651.66 535.75 654.59 525.93 655.52 516.23 654.47 506.65 652.15 497.18 648.32 487.84 643.36 478.61 638.33 469.48 633.19 460.43 628.52 451.48 625.38 442.58 623.73 433.73 623.94 424.93 626.65 416.16 631.45 407.41 638.19 398.68 646.82 389.96 656.43 381.25 666.31 372.55 676 364.06 684.16 355.8 690.14 347.53 694.02 339.5 694.94 331.71 692.9 323.92 688.4 316.39 681.33 309.13 672.2 301.87 661.77 294.88 650.37 288.2 638.62 281.5 627.21 275.09 616.43 268.99 606.65 262.86 598.3 257.01 591.32 251.45 585.72 243.14 580.26 227.6 575.56 220.29 574.71 212.9 574.17 198.61 569.92 191.64 565.45 186.81 561.7 182.1 557.01 177.53 551.42 172.76 545.39 168.15 538.58 163.73 531.11 159.17 523.32 154.86 515.02 150.85 506.33 146.8 497.46 143.11 488.33 139.86 479.03 136.68 469.66 134 460.21 131.89 450.74 129.97 441.26 128.68 431.79 128.08 422.37 127.75 412.95 128.14 403.8 129.22 394.91 130.57 385.99 132.58 377.3 135.22 368.8 138.07 360.23 141.48 351.79 145.41 343.45 149.44 334.96 153.91 326.5 158.77 318.01 163.62 309.31 168.79 300.52 174.22 291.62 179.55 282.47 185.09 273.18 190.79 263.77 196.33 254.17 202.02 244.5 207.82 234.85 213.42 225.2 219.14 215.73 224.98 206.59 230.62 197.76 236.39 189.49 242.31 181.97 248.04 175.08 253.96 169.15 260.05 164.3 266 160.25 272.17 157.33 278.56 155.53 284.86 154.37 291.4 154.1 298.2 154.58 304.93 155.14 311.94 155.99 319.22 156.92 326.46 157.2 333.99 157.1 341.8 156.47 349.58 154.74 357.65 152.34 366.01 149.32 374.35 145.4 382.99 141.19 391.93 137" stroke-dasharray="3 4" transform="rotate(8.08, 400, 400)" opacity="0.48"></path><path d="M396.82 148.02C405.49 143.81 414.26 140.32 423.12 137.78 432 135.98 440.98 135.51 450.05 136.44 459.15 138.41 468.35 141.75 477.62 146.32 486.93 151.65 496.31 157.88 505.72 164.76 515.16 171.8 524.61 179.08 534.01 186.38 543.38 193.29 552.65 199.94 561.75 206.24 570.72 211.86 579.42 217.07 587.74 221.89 595.81 226.05 603.39 229.94 610.36 233.68 619.84 238.62 633.99 248.77 638.33 254.5 640.83 260.67 640.32 275.59 637.65 284.36 635.45 290.51 632.73 297.1 629.63 304.07 626.81 311.16 623.94 318.57 621.2 326.26 619.18 334.01 617.58 341.98 616.52 350.13 616.51 358.28 617.2 366.58 618.61 374.99 621.1 383.39 624.13 391.71 627.56 399.92 631.71 408.16 635.91 416.33 640 424.47 644.27 432.69 648.07 440.94 651.21 449.28 654.07 457.78 656 466.47 656.94 475.37 657.27 484.55 656.48 494.03 654.57 503.86 651.95 513.98 648.23 524.45 643.51 535.23 638.15 546.21 631.91 557.37 624.9 568.56 617.44 579.63 609.37 590.43 600.83 600.71 592.05 610.35 582.93 619.05 573.59 626.53 564.18 632.84 554.66 637.58 545.1 640.56 535.58 642.17 526.07 642.02 516.63 640.18 507.28 637.41 498 633.46 488.83 628.72 479.74 624.16 470.75 619.71 461.85 615.87 453.03 613.58 444.27 612.71 435.6 613.59 426.97 616.73 418.39 621.73 409.87 628.42 401.36 636.75 392.9 645.92 384.49 655.28 376.08 664.47 367.91 672.27 359.99 678.12 352.07 682.1 344.39 683.41 336.97 682.01 329.53 678.37 322.36 672.29 315.46 664.18 308.55 654.74 301.91 644.17 295.54 633.04 289.16 621.96 283.05 611.21 277.21 601.15 271.33 592.2 265.71 584.38 260.35 577.75 254.9 572.54 249.69 568.43 244.7 565.24 237.11 562.38 222.59 559.08 215.57 557.33 208.37 555.11 194.25 546.77 187.35 540.39 182.62 535.53 178.04 529.91 173.66 523.61 169.16 517.04 164.9 509.89 160.94 502.27 156.95 494.48 153.33 486.31 150.12 477.87 147 469.35 144.37 460.62 142.29 451.75 140.41 442.87 139.13 433.88 138.52 424.82 138.17 415.76 138.52 406.85 139.54 398.08 140.83 389.3 142.76 380.64 145.3 372.07 148.05 363.45 151.35 354.87 155.15 346.32 159.07 337.65 163.43 328.95 168.16 320.19 172.92 311.27 177.98 302.25 183.31 293.14 188.57 283.87 194.04 274.51 199.68 265.1 205.18 255.62 210.83 246.18 216.6 236.87 222.19 227.69 227.9 218.82 233.72 210.38 239.35 202.34 245.1 194.96 250.98 188.37 256.7 182.43 262.56 177.45 268.58 173.5 274.47 170.28 280.54 168.08 286.81 166.88 292.98 166.16 299.38 166.2 306 166.84 312.56 167.42 319.36 168.18 326.42 168.93 333.44 168.99 340.72 168.65 348.27 167.78 355.8 165.87 363.61 163.34 371.7 160.25 379.77 156.32 388.14 152.16 396.81 148.03" stroke-dasharray="7 7" transform="rotate(12.12, 400, 400)" opacity="0.54"></path><path d="M401.86 159.05C410.25 154.91 418.74 151.45 427.31 148.87 435.9 146.95 444.59 146.27 453.34 146.9 462.12 148.49 470.97 151.4 479.87 155.5 488.79 160.37 497.75 166.16 506.7 172.66 515.64 179.43 524.55 186.53 533.37 193.77 542.12 200.77 550.72 207.62 559.1 214.21 567.32 220.24 575.23 225.92 582.73 231.24 589.96 235.93 596.67 240.34 602.78 244.53 611.01 250.03 622.91 260.66 626.35 266.25 628.18 272.01 627.06 285.49 624.44 293.34 622.4 298.79 619.93 304.66 617.15 310.94 614.68 317.27 612.18 323.98 609.81 331.01 608.13 338.08 606.82 345.43 605.98 353.04 606.1 360.66 606.83 368.51 608.17 376.57 610.49 384.63 613.28 392.72 616.41 400.82 620.21 408.94 624.06 417.12 627.8 425.36 631.76 433.68 635.31 442.13 638.29 450.73 641.07 459.47 643.05 468.44 644.14 477.64 644.74 487.04 644.33 496.72 642.92 506.67 640.89 516.79 637.85 527.15 633.87 537.66 629.31 548.19 623.89 558.71 617.73 569.06 611.12 579.11 603.89 588.69 596.16 597.58 588.15 605.74 579.76 612.86 571.1 618.72 562.32 623.47 553.37 626.72 544.32 628.38 535.26 628.89 526.16 627.9 517.08 625.53 508.05 622.52 499.05 618.65 490.14 614.26 481.29 610.27 472.51 606.56 463.82 603.55 455.19 602.06 446.64 601.94 438.17 603.4 429.74 606.91 421.38 612.05 413.1 618.65 404.84 626.68 396.63 635.4 388.51 644.25 380.39 652.95 372.52 660.39 364.91 666.08 357.3 670.12 349.94 671.77 342.84 670.96 335.72 668.11 328.87 662.97 322.28 655.87 315.67 647.43 309.32 637.76 303.23 627.35 297.11 616.77 291.24 606.24 285.62 596.13 279.95 586.82 274.51 578.39 269.3 570.94 264 564.71 258.9 559.49 254 555.16 246.53 550.62 232.12 544.83 225.13 542.48 217.95 540.17 203.89 532.95 197.02 527.65 192.33 523.67 187.8 518.99 183.47 513.67 179.03 508.13 174.84 502 170.95 495.35 167.04 488.55 163.49 481.31 160.34 473.69 157.3 466 154.72 458.01 152.68 449.77 150.83 441.5 149.57 433.02 148.95 424.36 148.59 415.71 148.91 407.07 149.87 398.49 151.09 389.89 152.93 381.31 155.36 372.75 158 364.15 161.18 355.52 164.84 346.86 168.64 338.13 172.86 329.32 177.45 320.45 182.09 311.48 187.03 302.43 192.25 293.32 197.41 284.14 202.79 274.94 208.36 265.77 213.8 256.65 219.4 247.66 225.12 238.91 230.69 230.39 236.37 222.27 242.16 214.68 247.78 207.55 253.52 201.11 259.37 195.5 265.06 190.51 270.89 186.44 276.85 183.35 282.69 180.87 288.69 179.3 294.87 178.6 300.94 178.24 307.22 178.49 313.7 179.19 320.11 179.73 326.75 180.36 333.62 180.88 340.44 180.71 347.51 180.12 354.84 179.02 362.13 176.94 369.7 174.29 377.53 171.14 385.35 167.23 393.46 163.12 401.85 159.06" stroke-dasharray="6 6" transform="rotate(16.16, 400, 400)" opacity="0.84"></path><path d="M406.8 170.08C414.91 166.02 423.1 162.6 431.35 159.99 439.62 157.97 447.96 157.1 456.36 157.45 464.76 158.68 473.21 161.15 481.68 164.77 490.15 169.16 498.62 174.48 507.05 180.54 515.44 186.96 523.76 193.8 531.94 200.88 540.03 207.85 547.92 214.78 555.55 221.56 563.01 227.91 570.12 233.97 576.8 239.73 583.21 244.94 589.11 249.86 594.4 254.53 601.46 260.73 611.36 272.26 614.04 278.01 615.33 283.69 613.8 296.41 611.32 303.64 609.46 308.6 607.25 313.94 604.8 319.68 602.67 325.44 600.53 331.57 598.52 338.06 597.14 344.56 596.1 351.39 595.47 358.54 595.7 365.69 596.45 373.15 597.73 380.89 599.89 388.64 602.45 396.5 605.3 404.47 608.75 412.46 612.26 420.59 615.67 428.85 619.32 437.18 622.6 445.69 625.41 454.39 628.08 463.19 630.05 472.22 631.25 481.47 632.05 490.83 631.96 500.41 630.97 510.16 629.45 519.96 627.01 529.86 623.71 539.76 619.88 549.53 615.24 559.12 609.88 568.37 604.1 577.19 597.7 585.41 590.77 592.82 583.56 599.47 575.93 605.04 567.99 609.37 559.89 612.71 551.57 614.68 543.11 615.25 534.59 614.9 525.98 613.32 517.35 610.64 508.72 607.59 500.1 603.96 491.53 600.05 482.99 596.69 474.5 593.75 466.09 591.56 457.72 590.83 449.42 591.38 441.2 593.37 433.02 597.18 424.91 602.41 416.89 608.88 408.88 616.59 400.95 624.88 393.11 633.23 385.26 641.44 377.68 648.51 370.37 654.02 363.04 658.1 355.97 660.04 349.17 659.75 342.34 657.62 335.76 653.37 329.44 647.25 323.09 639.8 316.98 631.08 311.13 621.49 305.22 611.54 299.55 601.42 294.11 591.45 288.61 582.02 283.31 573.21 278.22 565.16 273.02 558.12 268.01 551.95 263.17 546.61 255.79 540.43 241.47 531.85 234.48 528.55 227.34 525.7 213.34 518.62 206.53 513.9 201.89 510.47 197.42 506.45 193.15 501.85 188.79 497.11 184.69 491.8 180.87 485.97 177.05 480.02 173.59 473.59 170.52 466.73 167.55 459.81 165.05 452.52 163.05 444.89 161.25 437.23 160.01 429.28 159.39 421.06 159.02 412.83 159.29 404.54 160.19 396.2 161.34 387.85 163.09 379.45 165.4 370.99 167.92 362.52 170.96 353.97 174.48 345.36 178.13 336.71 182.2 327.98 186.65 319.19 191.14 310.37 195.95 301.49 201.03 292.61 206.08 283.75 211.35 274.93 216.81 266.23 222.18 257.67 227.7 249.33 233.36 241.32 238.88 233.61 244.53 226.38 250.27 219.73 255.87 213.56 261.58 208.1 267.4 203.45 273.07 199.38 278.87 196.17 284.79 193.84 290.58 192.01 296.53 190.97 302.62 190.66 308.62 190.55 314.79 190.91 321.15 191.61 327.44 192.05 333.93 192.49 340.63 192.77 347.28 192.35 354.16 191.51 361.28 190.18 368.36 187.94 375.7 185.19 383.28 181.99 390.85 178.11 398.69 174.07 406.79 170.08" stroke-dasharray="3 9" transform="rotate(20.200000000000003, 400, 400)" opacity="0.32"></path><path d="M411.41 181.11C419.21 177.15 427.07 173.77 434.98 171.15 442.9 169.05 450.86 168 458.85 168.08 466.84 168.96 474.85 171.01 482.84 174.16 490.81 178.05 498.75 182.87 506.6 188.45 514.4 194.45 522.09 200.94 529.59 207.77 537 214.59 544.17 221.49 551.04 228.34 557.74 234.88 564.07 241.23 569.95 247.35 575.59 252.99 580.71 258.38 585.25 263.52 591.26 270.46 599.42 283.18 601.46 289.3 602.35 295.18 600.6 307.76 598.3 314.68 595.68 321.85 589.89 337.94 587.31 346.87 586.22 352.93 585.42 359.36 584.98 366.12 585.31 372.89 586.08 379.99 587.3 387.45 589.3 394.9 591.64 402.53 594.22 410.32 597.35 418.13 600.52 426.12 603.62 434.29 606.95 442.51 609.97 450.92 612.59 459.52 615.12 468.17 617.05 477.03 618.31 486.04 619.25 495.1 619.41 504.28 618.77 513.53 617.69 522.72 615.77 531.88 613.07 540.89 609.9 549.66 605.98 558.12 601.37 566.09 596.37 573.57 590.76 580.36 584.63 586.28 578.21 591.47 571.36 595.61 564.15 598.58 556.78 600.7 549.14 601.61 541.31 601.33 533.39 600.38 525.35 598.43 517.23 595.67 509.09 592.77 500.92 589.51 492.76 586.17 484.61 583.49 476.48 581.31 468.4 579.91 460.36 579.89 452.36 581.05 444.44 583.48 436.55 587.53 428.72 592.8 420.98 599.12 413.26 606.5 405.61 614.34 398.05 622.2 390.49 629.94 383.19 636.65 376.15 641.96 369.1 646.04 362.3 648.2 355.75 648.37 349.17 646.91 342.84 643.48 336.75 638.3 330.63 631.84 324.73 624.08 319.07 615.37 313.35 606.17 307.84 596.6 302.54 586.97 297.17 577.64 291.98 568.69 286.98 560.28 281.87 552.66 276.93 545.74 272.13 539.55 267.21 534.24 262.41 529.57 257.75 525.44 250.56 520.47 236.5 512.3 229.61 508.39 222.6 504.51 209.1 494.91 202.7 488.95 198.45 484.74 194.43 480.02 190.71 474.81 187 469.52 183.63 463.75 180.65 457.55 177.78 451.29 175.35 444.62 173.41 437.56 171.66 430.49 170.45 423.05 169.83 415.29 169.45 407.52 169.68 399.61 170.51 391.59 171.59 383.57 173.24 375.44 175.43 367.22 177.82 359 180.72 350.68 184.07 342.29 187.57 333.89 191.48 325.42 195.75 316.92 200.08 308.45 204.73 299.97 209.65 291.53 214.57 283.19 219.71 274.96 225.04 266.93 230.31 259.1 235.74 251.57 241.3 244.44 246.76 237.65 252.34 231.37 258.03 225.71 263.59 220.51 269.26 216.01 275.02 212.28 280.66 209.06 286.42 206.61 292.29 204.94 298.04 203.65 303.92 203.02 309.94 202.98 315.87 203.03 321.95 203.43 328.2 204.04 334.37 204.33 340.73 204.55 347.28 204.57 353.77 203.89 360.48 202.81 367.39 201.26 374.27 198.88 381.38 196.04 388.71 192.82 396.03 188.98 403.59 185.01 411.4 181.11" stroke-dasharray="5 7" transform="rotate(24.24, 400, 400)" opacity="0.47"></path><path d="M415.44 192.13C422.92 188.28 430.43 184.96 437.97 182.34 445.5 180.18 453.06 178.98 460.6 178.8 468.15 179.36 475.67 181 483.13 183.68 490.58 187.07 497.94 191.36 505.19 196.43 512.38 201.95 519.41 208.03 526.23 214.5 532.94 221.07 539.39 227.82 545.52 234.62 551.48 241.23 557.07 247.74 562.2 254.09 567.12 260.07 571.53 265.85 575.39 271.41 580.47 279.05 587.14 293.08 588.69 299.71 589.27 305.99 587.48 318.91 585.41 325.78 583.16 332.78 578.29 348.21 576.19 356.72 575.37 362.48 574.79 368.59 574.51 375.05 574.92 381.5 575.7 388.3 576.86 395.47 578.71 402.63 580.84 410 583.17 417.55 585.99 425.11 588.85 432.87 591.64 440.81 594.66 448.76 597.42 456.9 599.82 465.19 602.19 473.5 604.05 481.94 605.32 490.47 606.35 498.98 606.7 507.51 606.34 515.99 605.62 524.35 604.16 532.54 601.98 540.46 599.41 548.09 596.14 555.28 592.21 561.9 587.94 568.03 583.09 573.41 577.71 577.93 572.06 581.77 565.97 584.64 559.51 586.46 552.87 587.59 545.94 587.69 538.77 586.82 531.51 585.49 524.08 583.41 516.53 580.75 508.94 578.14 501.28 575.36 493.59 572.67 485.89 570.7 478.19 569.27 470.51 568.61 462.84 569.24 455.2 570.92 447.63 573.74 440.06 577.96 432.56 583.22 425.13 589.36 417.71 596.4 410.35 603.79 403.09 611.17 395.82 618.44 388.8 624.78 382.02 629.89 375.24 633.93 368.69 636.28 362.38 636.85 356.04 635.97 349.93 633.31 344.04 629.02 338.12 623.51 332.41 616.73 326.9 608.94 321.34 600.56 315.97 591.68 310.78 582.56 305.52 573.52 300.43 564.65 295.5 556.13 290.46 548.16 285.57 540.74 280.82 533.89 275.93 527.79 271.17 522.26 266.52 517.25 261.73 512.9 257.04 508.94 252.45 505.25 245.41 500.46 231.66 491.33 225.02 486.5 218.39 481.52 206.04 469.69 200.47 462.71 196.88 457.88 193.62 452.61 190.74 446.92 187.97 441.19 185.62 435.05 183.75 428.51 182.06 421.96 180.88 415.02 180.26 407.73 179.88 400.43 180.08 392.95 180.84 385.33 181.84 377.72 183.38 369.96 185.44 362.11 187.7 354.26 190.45 346.32 193.63 338.32 196.96 330.34 200.69 322.32 204.77 314.31 208.93 306.36 213.4 298.46 218.14 290.67 222.9 283.02 227.88 275.55 233.06 268.34 238.2 261.36 243.51 254.74 248.95 248.57 254.32 242.74 259.81 237.44 265.41 232.76 270.91 228.5 276.51 224.9 282.21 222.01 287.8 219.53 293.5 217.73 299.3 216.6 305 215.73 310.81 215.4 316.75 215.53 322.6 215.64 328.59 215.98 334.72 216.45 340.79 216.54 347.01 216.51 353.4 216.25 359.75 215.32 366.27 214 372.98 212.26 379.66 209.75 386.53 206.84 393.61 203.6 400.67 199.82 407.95 195.94 415.43 192.14" stroke-dasharray="6 8" transform="rotate(28.28, 400, 400)" opacity="0.63"></path><path d="M418.69 203.16C425.83 199.42 432.98 196.17 440.11 193.57 447.24 191.36 454.36 190.02 461.43 189.62 468.5 189.87 475.51 191.13 482.43 193.35 489.32 196.23 496.1 200 502.72 204.53 509.29 209.53 515.66 215.12 521.8 221.16 527.84 227.39 533.59 233.87 539.01 240.49 544.27 247.03 549.15 253.56 553.61 260.02 557.86 266.21 561.63 272.26 564.89 278.14 569.17 286.38 574.61 301.65 575.78 308.85 576.16 315.65 574.47 329.25 572.67 336.27 570.79 343.31 566.82 358.5 565.16 366.75 564.57 372.32 564.19 378.21 564.06 384.41 564.54 390.61 565.33 397.14 566.42 404.02 568.13 410.89 570.06 417.96 572.15 425.2 574.69 432.44 577.24 439.85 579.73 447.41 582.45 454.97 584.94 462.67 587.13 470.46 589.33 478.24 591.08 486.07 592.33 493.9 593.4 501.66 593.88 509.35 593.74 516.88 593.32 524.24 592.23 531.33 590.5 538.06 588.44 544.46 585.74 550.37 582.44 555.66 576.76 562.52 562.43 571.42 554.02 573.22 548.11 573.61 541.89 573.16 535.41 571.93 528.82 570.45 522.03 568.43 515.09 566.03 508.09 563.84 500.99 561.63 493.81 559.6 486.62 558.34 479.39 557.63 472.16 557.66 464.92 558.86 457.69 561 450.49 564.12 443.31 568.46 436.15 573.67 429.06 579.6 421.97 586.28 414.93 593.24 407.97 600.15 401 606.95 394.27 612.93 387.75 617.81 381.23 621.79 374.93 624.27 368.84 625.18 362.73 624.83 356.82 622.86 351.12 619.39 345.38 614.8 339.83 608.97 334.46 602.12 329.04 594.64 323.79 586.53 318.71 578.05 313.55 569.49 308.53 560.92 303.66 552.5 298.7 544.43 293.86 536.74 289.14 529.48 284.3 522.79 279.58 516.59 274.95 510.85 270.21 505.7 265.56 500.92 261.01 496.46 254.04 490.55 240.51 479.73 234 474.38 227.53 469.09 215.54 457.32 210.16 450.64 206.7 446.07 203.57 441.13 200.8 435.81 198.13 430.47 195.88 424.75 194.08 418.66 192.45 412.56 191.31 406.09 190.7 399.26 190.31 392.43 190.47 385.42 191.17 378.27 192.09 371.12 193.52 363.84 195.45 356.46 197.57 349.11 200.15 341.68 203.15 334.22 206.3 326.8 209.84 319.39 213.72 312.02 217.68 304.75 221.96 297.58 226.5 290.58 231.07 283.74 235.87 277.14 240.87 270.84 245.85 264.8 251.01 259.13 256.3 253.94 261.54 249.06 266.92 244.72 272.4 240.95 277.8 237.55 283.31 234.76 288.91 232.59 297.24 230.1 314.24 228.09 322.95 228.21 328.71 228.29 334.59 228.51 340.6 228.78 346.55 228.64 352.63 228.34 358.85 227.8 365.04 226.62 371.38 225.08 377.87 223.16 384.34 220.55 390.98 217.59 397.78 214.35 404.57 210.64 411.54 206.86 418.68 203.17" stroke-dasharray="8 2" transform="rotate(32.32, 400, 400)" opacity="0.74"></path><path d="M421.01 214.19C427.79 210.57 434.54 207.41 441.25 204.83 447.96 202.59 454.61 201.15 461.2 200.54 467.77 200.51 474.25 201.4 480.61 203.19 486.94 205.58 493.13 208.81 499.14 212.79 505.08 217.24 510.82 222.29 516.29 227.84 521.68 233.62 526.77 239.73 531.52 246.06 536.14 252.4 540.38 258.82 544.22 265.24 547.88 271.5 551.09 277.68 553.84 283.75 557.43 292.42 561.9 308.74 562.8 316.47 563.07 323.8 561.59 338.23 560.09 345.51 558.58 352.74 555.47 367.97 554.21 376.09 553.84 381.55 553.63 387.27 553.64 393.27 554.17 399.25 554.95 405.53 555.99 412.1 557.56 418.67 559.3 425.39 561.16 432.24 563.42 439.09 565.69 446.06 567.9 453.12 570.33 460.17 572.56 467.28 574.53 474.42 576.53 481.52 578.15 488.59 579.35 495.57 580.42 502.45 580.98 509.17 581 515.65 580.41 524.91 575.95 540.94 572.1 547.34 567.33 552.46 555.01 558.38 547.65 559.11 542.45 559 536.93 558.23 531.13 556.88 525.22 555.44 519.08 553.65 512.76 551.64 506.39 549.95 499.87 548.35 493.25 547.01 486.6 546.43 479.89 546.4 473.13 547.05 466.37 548.75 459.58 551.27 452.8 554.63 446.02 559.03 439.26 564.14 432.52 569.83 425.8 576.16 419.1 582.68 412.45 589.12 405.81 595.47 399.36 601.09 393.11 605.73 386.86 609.61 380.8 612.19 374.93 613.38 369.04 613.48 363.33 612.13 357.8 609.43 352.24 605.69 346.84 600.78 341.61 594.88 336.33 588.31 331.19 581.06 326.2 573.33 321.14 565.39 316.2 557.28 311.4 549.17 306.5 541.24 301.72 533.52 297.05 526.08 292.28 519.06 287.6 512.4 283.02 506.13 278.33 500.34 273.74 494.89 269.25 489.76 264.65 485.04 260.15 480.54 255.78 476.2 249.14 470.16 236.52 458.35 230.63 452.28 224.95 446.14 214.96 432.66 210.81 425.21 208.27 420.14 206.12 414.74 204.4 409.02 202.83 403.3 201.74 397.25 201.14 390.88 200.74 384.52 200.87 377.99 201.5 371.35 202.34 364.71 203.66 357.97 205.46 351.17 207.43 344.4 209.84 337.59 212.65 330.78 215.61 324.04 218.94 317.34 222.6 310.74 226.36 304.25 230.41 297.9 234.73 291.77 239.09 285.82 243.69 280.13 248.49 274.78 253.28 269.67 258.25 264.95 263.37 260.7 268.45 256.72 273.67 253.25 279 250.31 286.97 246.6 303.29 242.16 311.63 241.27 319.96 240.83 337.01 240.94 345.75 240.99 351.56 240.6 357.49 240.02 363.53 239.21 369.53 237.79 375.67 236.05 381.93 233.97 388.17 231.27 394.56 228.28 401.07 225.07 407.57 221.44 414.22 217.76 421 214.19" stroke-dasharray="9 7" transform="rotate(36.36, 400, 400)" opacity="0.17"></path><path d="M422.27 225.22C428.67 221.73 435.01 218.67 441.28 216.13 447.55 213.88 453.73 212.35 459.81 211.56 471.94 211.56 483.56 214.9 494.42 221.25 505.06 229.43 514.73 239.76 523.14 251.46 531.09 263.51 537.56 275.97 542.34 288.34 546.54 300.04 549.03 311.39 549.82 322.39 550.34 332.6 549.54 342.74 547.7 352.98 546.43 362.77 544.86 373.04 543.35 383.92 543.14 392.11 544.19 409.5 545.55 418.76 546.99 425.01 548.55 431.34 550.2 437.74 552.21 444.13 554.21 450.58 556.15 457.05 560.6 469.92 564.15 482.69 566.41 494.92 568.37 506.68 568.45 517.36 566.55 526.41 563.8 534.33 559.01 540.02 552.39 543.12 545 544.96 536.05 544.42 525.89 541.9 515.29 539.59 503.81 536.91 491.76 534.94 479.57 535.84 467.01 539.15 454.34 545.25 448 549.65 441.65 554.63 435.3 560.06 428.96 566.02 422.62 572.1 416.31 578.09 410 584 403.86 589.25 397.89 593.65 391.91 597.41 386.1 600.04 380.45 601.45 369.1 601.43 358.35 596.4 348.2 587.16 337.86 575.3 328 561.12 318.62 545.94 308.93 530.89 299.6 516.36 290.68 502.88 281.4 490.82 272.47 479.87 264.01 469.81 255.28 460.87 247.1 452.18 239.7 443.35 232.31 434.96 225.92 425.93 220.79 416.06 217.36 408.57 212.69 392.33 211.57 383.57 211.18 377.64 211.27 371.61 211.84 365.5 212.59 359.41 213.81 353.25 215.46 347.08 219.27 334.83 224.68 322.69 231.44 311.02 238.58 299.79 246.83 289.43 255.92 280.36 265.08 272.1 274.92 265.48 285.23 260.76 295.4 256.85 306 254.67 316.91 254.05 327.63 253.29 338.71 253.14 350.11 253.04 361.37 251.24 373.03 248.52 385.06 244.67 391.06 241.92 397.16 238.92 403.36 235.75 409.56 232.21 415.86 228.66 422.26 225.22" stroke-dasharray="7 5" transform="rotate(40.400000000000006, 400, 400)" opacity="0.46"></path><path d="M422.42 236.24C434.42 229.62 446.08 224.93 457.25 222.69 468.37 222.17 478.9 224.68 488.61 229.96 498.12 236.98 506.65 246.15 513.96 256.82 520.89 268.08 526.45 279.99 530.49 292.06 534.1 303.78 536.23 315.34 536.9 326.61 537.45 337.29 536.91 347.84 535.5 358.35 534.68 368.47 533.6 378.86 532.56 389.61 532.89 400.24 533.72 411.44 535.11 423.22 538.11 435.01 541.33 446.85 544.47 458.52 548.39 470.08 551.51 481.24 553.53 491.61 555.4 501.52 555.65 510.19 554.19 517.17 552.08 523.25 548.15 527.29 542.56 529.12 536.31 530.16 528.59 529.36 519.68 527.19 510.37 525.62 500.12 524.07 489.23 523.4 478.18 525.4 466.67 529.53 454.94 535.97 443.18 545.31 431.27 556.09 419.35 567.06 407.43 577.78 396.05 585.52 385.24 589.4 374.37 590.16 363.99 586.48 354.12 578.93 344.1 568.89 334.47 556.4 325.27 542.57 315.81 528.43 306.68 514.31 297.93 500.79 288.89 488.25 280.2 476.57 271.99 465.72 263.59 455.82 255.74 446.32 248.67 436.96 241.65 428.06 235.59 418.83 230.74 409.13 226.31 399.51 223.32 389.2 222.01 378.18 221.4 367.16 222.61 355.99 225.47 344.91 228.96 333.96 233.96 323.31 240.24 313.3 246.9 303.68 254.64 295.02 263.21 287.66 271.9 280.94 281.26 275.73 291.11 272.18 300.89 269.12 311.1 267.46 321.61 266.97 331.99 266.08 342.7 265.53 353.67 264.87 364.54 262.57 375.74 259.41 387.21 255.27 398.64 249.28 410.41 242.71 422.41 236.25" stroke-dasharray="4 1" transform="rotate(44.44, 400, 400)" opacity="0.24"></path><path d="M421.44 247.27C432.61 240.94 443.36 236.35 453.55 233.93 463.68 232.96 473.16 234.69 481.8 238.96 490.27 244.82 497.76 252.78 504.11 262.29 510.16 272.55 514.96 283.66 518.41 295.14 521.57 306.55 523.45 317.98 524.1 329.23 524.75 340.11 524.49 350.85 523.5 361.46 523.11 371.78 522.48 382.19 521.85 392.74 522.42 403.19 523.35 413.94 524.68 424.97 527.38 436 530.19 446.79 532.88 457.13 536.28 467.37 538.98 476.96 540.74 485.58 542.63 497.25 538.44 512.05 532.13 514.52 526.89 515.19 520.29 514.52 512.53 512.96 504.42 512.28 495.36 511.87 485.61 512.41 475.69 515.36 465.25 520.13 454.47 526.78 443.66 535.81 432.59 545.91 421.42 556.04 410.24 565.94 399.47 573.25 389.16 577.25 378.8 578.65 368.83 576.16 359.29 570.17 349.62 561.89 340.28 551.15 331.31 538.86 322.13 525.95 313.26 512.63 304.74 499.52 296.01 486.97 287.63 475 279.73 463.72 271.71 453.17 264.24 443.08 257.53 433.3 250.91 423.93 245.21 414.52 240.67 404.93 236.51 395.45 233.7 385.58 232.45 375.34 231.83 365.1 232.89 354.98 235.48 345.18 238.65 335.47 243.24 326.26 249.02 317.8 255.18 309.66 262.37 302.52 270.38 296.63 278.54 291.18 287.37 287.08 296.69 284.36 305.99 281.86 315.73 280.44 325.75 279.87 335.71 278.71 345.96 277.69 356.43 276.45 366.84 273.67 377.51 270.12 388.36 265.77 399.2 259.82 410.26 253.46 421.44 247.27" stroke-dasharray="1 2" transform="rotate(48.48, 400, 400)" opacity="0.75"></path><path d="M419.38 258.3C429.71 252.29 439.54 247.82 448.77 245.27 457.95 243.92 466.44 244.96 474.1 248.28 481.61 253.02 488.2 259.75 493.72 268.03 499.02 277.13 503.2 287.21 506.21 297.86 509.04 308.64 510.77 319.61 511.47 330.54 512.26 341.28 512.29 351.93 511.72 362.41 511.71 372.71 511.49 382.98 511.22 393.19 511.98 403.34 512.98 413.57 514.24 423.79 516.66 434.02 519.09 443.74 521.36 452.82 524.27 461.79 526.57 469.94 528.05 477.03 528.1 492.25 514.01 500.26 504.5 499.39 497.49 499.65 489.55 500.34 480.88 501.97 472.07 505.71 462.67 510.95 452.85 517.68 443 526.32 432.81 535.72 422.41 545.01 412.01 554.11 401.89 560.97 392.12 564.99 382.31 566.9 372.81 565.44 363.64 560.87 354.38 554.26 345.39 545.27 336.72 534.63 327.9 523.16 319.35 510.98 311.14 498.67 302.79 486.56 294.78 474.75 287.25 463.44 279.66 452.63 272.61 442.25 266.3 432.26 260.11 422.61 254.8 413.1 250.56 403.66 246.7 394.33 244.07 384.89 242.88 375.39 242.27 365.88 243.19 356.74 245.51 348.11 248.36 339.55 252.51 331.63 257.79 324.54 263.43 317.68 270.05 311.8 277.45 307.07 285.03 302.6 293.27 299.28 301.99 297.08 310.75 294.87 319.93 293.45 329.4 292.62 338.83 291.09 348.55 289.55 358.45 287.74 368.31 284.53 378.38 280.66 388.56 276.16 398.74 270.31 409.05 264.19 419.38 258.3" stroke-dasharray="8 3" transform="rotate(52.52, 400, 400)" opacity="0.33"></path><path d="M416.35 269.32C425.82 263.65 434.76 259.35 443.07 256.72 451.33 255.07 458.91 255.5 465.68 257.94 472.34 261.62 478.14 267.13 482.97 274.15 487.64 281.99 491.34 290.9 494.02 300.48 496.61 310.36 498.28 320.58 499.09 330.88 500.04 341.15 500.36 351.4 500.17 361.5 500.5 371.51 500.62 381.42 500.66 391.15 501.58 400.85 502.62 410.45 503.8 419.83 505.95 429.21 508.04 437.92 509.92 445.83 513.33 457.12 516.94 474.26 516.32 479.65 514.26 483.51 503.81 486.28 495.66 486.62 489.65 487.82 482.74 489.52 475.1 492.08 467.33 496.42 458.94 501.97 450.08 508.64 441.18 516.82 431.88 525.51 422.28 533.98 412.68 542.3 403.25 548.68 394.07 552.65 384.87 554.94 375.87 554.33 367.15 551.03 358.36 545.95 349.79 538.65 341.5 529.69 333.11 519.81 324.96 509.02 317.14 497.83 309.23 486.56 301.66 475.33 294.56 464.4 287.45 453.74 280.87 443.42 274.99 433.51 269.26 423.83 264.35 414.39 260.44 405.21 256.87 396.11 254.44 387.13 253.32 378.31 252.71 369.49 253.49 361.24 255.55 353.65 258.08 346.09 261.81 339.26 266.57 333.3 271.68 327.46 277.7 322.55 284.47 318.66 291.43 314.86 299.02 312.01 307.09 310.04 315.23 307.88 323.78 306.28 332.61 305.06 341.45 303.09 350.54 301.04 359.79 298.7 369.03 295.13 378.43 291.02 387.89 286.43 397.35 280.74 406.88 274.89 416.35 269.32" stroke-dasharray="10 9" transform="rotate(56.56, 400, 400)" opacity="0.22"></path><path d="M412.5 280.35C421.1 275.04 429.16 270.94 436.6 268.28 444.01 266.4 450.74 266.3 456.73 267.97 462.63 270.67 467.75 275.03 472 280.79 476.17 287.34 479.48 294.96 481.93 303.34 484.37 312.09 486.03 321.3 486.97 330.71 488.09 340.21 488.68 349.77 488.84 359.22 489.46 368.67 489.88 377.99 490.18 387.07 491.2 396.16 492.27 405.02 493.37 413.54 495.26 422.07 497.03 429.82 498.56 436.72 502.79 453.79 501.92 469.23 498.17 471.19 493.11 473.16 478.01 478.13 468.34 482.7 461.54 487.47 454.12 493.16 446.19 499.67 438.22 507.33 429.8 515.28 421.03 522.95 412.26 530.49 403.55 536.37 395.02 540.23 386.47 542.77 378.05 542.87 369.84 540.65 361.6 536.95 353.52 531.22 345.69 523.91 337.8 515.68 330.13 506.42 322.77 496.57 315.37 486.47 308.31 476.18 301.69 465.99 295.1 455.89 289.03 446 283.62 436.45 278.36 427.04 273.87 417.92 270.3 409.13 267.03 400.4 264.8 391.92 263.76 383.77 263.15 375.62 263.81 368.16 265.61 361.43 267.83 354.72 271.13 348.77 275.38 343.66 279.95 338.58 285.36 334.35 291.47 330.99 297.77 327.58 304.68 324.93 312.04 322.95 319.5 320.65 327.36 318.75 335.49 317.07 343.65 314.65 352.05 312.11 360.58 309.31 369.13 305.46 377.8 301.19 386.49 296.6 395.19 291.11 403.9 285.58 412.5 280.35" stroke-dasharray="8 4" transform="rotate(60.599999999999994, 400, 400)" opacity="0.72"></path><path d="M408.02 291.38C415.76 286.44 422.98 282.57 429.6 279.94 439.18 277.65 454.96 281.86 461.02 288.07 464.76 293.34 467.78 299.64 470.08 306.72 472.4 314.21 474.09 322.24 475.18 330.55 476.45 339.03 477.29 347.65 477.74 356.22 478.6 364.85 479.25 373.38 479.76 381.67 480.85 389.97 481.92 398.02 482.93 405.68 484.59 413.34 486.06 420.22 487.29 426.27 490.59 441.27 489.53 455.63 486.32 458.2 482.03 461.1 469.11 468.37 460.72 473.83 454.82 478.83 448.3 484.51 441.26 490.74 434.2 497.82 426.66 505.04 418.72 511.93 410.79 518.71 402.85 524.07 395 527.75 387.15 530.42 379.38 531.06 371.76 529.75 364.12 527.24 356.62 522.95 349.33 517.19 342.01 510.58 334.89 502.91 328.07 494.55 321.25 485.82 314.74 476.74 308.67 467.58 302.64 458.38 297.11 449.25 292.19 440.36 287.43 431.53 283.36 422.95 280.14 414.72 277.19 406.52 275.16 398.63 274.19 391.13 273.6 383.64 274.14 376.88 275.69 370.86 277.61 364.83 280.49 359.54 284.23 355.02 288.25 350.47 293.05 346.66 298.48 343.55 304.11 340.31 310.3 337.65 316.93 335.48 323.66 332.94 330.77 330.66 338.13 328.5 345.55 325.67 353.2 322.71 360.96 319.54 368.74 315.51 376.63 311.18 384.51 306.66 392.41 301.43 400.28 296.24 408.02 291.38" stroke-dasharray="10 6" transform="rotate(64.64, 400, 400)" opacity="0.88"></path><path d="M403.14 302.41C410.03 297.87 416.42 294.27 422.28 291.71 430.76 289.18 444.74 291.44 450.17 296.07 453.56 300.13 456.35 305.15 458.54 310.92 460.79 317.09 462.51 323.82 463.73 330.9 465.14 338.19 466.17 345.69 466.87 353.22 467.91 360.83 468.75 368.4 469.4 375.77 470.53 383.17 471.57 390.34 472.49 397.15 474.53 407 477.82 423.07 478.68 429.28 478.2 438.99 470.7 450.25 465.59 454.13 461.85 457.51 457.44 461.25 452.4 465.42 447.31 470.48 441.63 476 435.45 481.84 429.24 488.31 422.56 494.78 415.48 500.9 408.39 506.93 401.25 511.76 394.14 515.21 387.03 517.9 379.96 518.94 372.99 518.36 366.03 516.85 359.17 513.8 352.49 509.45 345.81 504.37 339.32 498.27 333.11 491.42 326.91 484.18 321.01 476.48 315.52 468.56 310.1 460.51 305.13 452.4 300.72 444.42 296.47 436.43 292.84 428.61 289.97 421.09 287.33 413.58 285.52 406.36 284.63 399.53 284.27 389.63 288.66 373.25 293.14 366.7 298.72 360.69 313.23 351.2 321.82 347.34 327.78 344.52 334.11 341.86 340.67 339.27 347.3 336.09 354.14 332.81 361.08 329.39 368.06 325.28 375.12 320.98 382.17 316.6 389.23 311.69 396.26 306.88 403.14 302.41" stroke-dasharray="9 7" transform="rotate(68.68, 400, 400)" opacity="0.25"></path><path d="M398.1 313.43C410.2 305.31 420.53 300.84 428.81 300.38 437.03 301.86 443.26 307.47 447.41 316.16 451.84 326.22 454.73 338.27 456.24 350.94 458.85 363.98 460.82 376.99 462.06 388.94 464.88 400.89 466.53 410.52 466.76 417.84 467.56 425.39 466.15 431.3 462.44 436.17 458.58 442.6 452.19 449.54 443.58 457.42 434.79 467.9 423.94 479.27 411.45 489.87 398.97 500.21 386.15 505.92 373.65 506.52 361.19 504.35 349.06 497.31 337.93 486.95 326.93 475.12 317.1 461.56 309.23 447.79 301.9 433.85 296.91 420.28 295.07 407.98 294.26 395.68 296.83 385.7 302.13 377.96 308.24 369.88 316.73 363.45 326.79 358.27 337.25 351.76 348.96 345.37 361.12 338.83 373.42 330.21 386.01 321.36 398.1 313.43" stroke-dasharray="7 3" transform="rotate(72.72, 400, 400)" opacity="0.45"></path><path d="M393.16 324.46C403.62 317.19 412.6 312.94 419.87 311.97 427.13 312.34 432.78 316.15 436.76 322.64 441.02 330.21 444.02 339.71 445.82 350.05 448.49 360.74 450.47 371.69 451.62 382.03 453.96 392.37 455.13 401.07 455.02 408.11 455.41 415.44 453.97 421.75 450.63 427.45 447.27 434.43 441.8 441.84 434.43 449.8 426.96 459.55 417.66 469.67 406.86 478.84 396.05 487.82 384.85 493.07 373.89 494.26 362.98 493.49 352.35 488.7 342.61 480.96 333.04 471.98 324.52 461.16 317.74 449.73 311.42 438.06 307.12 426.38 305.5 415.5 304.71 404.62 306.79 395.5 311.21 388.09 316.27 380.35 323.41 373.76 331.94 368.06 340.81 361.27 350.82 354.55 361.27 347.88 371.85 339.7 382.7 331.58 393.16 324.46" stroke-dasharray="8 8" transform="rotate(76.76, 400, 400)" opacity="0.08"></path><path d="M388.56 335.49C397.42 329.11 405.11 325.21 411.44 323.92 417.79 323.51 422.88 325.85 426.65 330.44 430.67 335.82 433.67 342.96 435.63 351.09 438.24 359.49 440.15 368.42 441.18 377.22 443.08 386.02 443.85 393.84 443.49 400.62 443.53 407.65 442.05 414.17 439.06 420.34 436.1 427.44 431.43 434.87 425.2 442.49 418.91 451.26 411.07 460.04 401.91 467.82 392.76 475.45 383.23 480.13 373.87 481.65 364.57 481.86 355.51 478.88 347.24 473.39 339.13 466.96 331.95 458.73 326.25 449.64 320.94 440.31 317.32 430.6 315.94 421.2 315.19 411.8 316.82 403.55 320.39 396.48 324.47 389.14 330.29 382.54 337.33 376.55 344.64 369.76 352.96 363.04 361.71 356.54 370.56 349.02 379.69 341.74 388.56 335.49" stroke-dasharray="4 7" transform="rotate(80.80000000000001, 400, 400)" opacity="0.34"></path><path d="M384.53 346.52C395.07 339.37 411.39 335.94 417.12 339.63 420.8 343.19 423.67 348.29 425.65 354.42 428.08 360.73 429.84 367.77 430.75 375.08 432.23 382.39 432.69 389.28 432.15 395.64 431.92 402.19 430.46 408.56 427.79 414.75 425.2 421.54 421.25 428.51 416.07 435.43 410.87 443.02 404.41 450.39 396.88 456.79 389.34 463.09 381.48 467.1 373.77 468.72 366.12 469.54 358.67 467.92 351.9 464.24 345.27 459.94 339.41 454.03 334.79 447.12 330.47 440.02 327.52 432.29 326.38 424.42 325.68 416.55 326.91 409.27 329.7 402.71 332.85 395.95 337.44 389.6 343.04 383.67 348.85 377.21 355.52 370.85 362.6 364.81 369.76 358.15 377.22 351.85 384.53 346.52" stroke-dasharray="10 5" transform="rotate(84.84, 400, 400)" opacity="0.16"></path><path d="M381.28 357.54C392.89 348.8 402.17 346.54 408.21 350.12 414.8 354.77 419.18 364.13 420.31 375.85 422.89 387.56 421.61 399.48 416.93 410.51 412.52 422.91 403.91 435.78 391.99 445.76 380.07 455.5 367.33 457.87 356.67 453.66 346.44 447.98 338.91 437.39 336.82 424.79 335.9 412.18 340.79 400.01 349.15 389.42 358.07 377.63 369.67 366.07 381.28 357.54" stroke-dasharray="7 4" transform="rotate(88.88, 400, 400)" opacity="0.22"></path><path d="M378.97 368.57C391.26 360.79 407.08 367.48 409.87 379.45 411.64 388.27 410.33 398.09 406.53 407.41 402.92 417.34 396.35 427.31 387.51 434.74 378.67 442.02 369.35 444.23 361.64 441.81 354.2 438.69 348.76 431.66 347.25 422.25 346.43 412.83 349.78 402.88 355.71 393.89 361.96 384.36 370.31 375.17 378.97 368.57" stroke-dasharray="3 10" transform="rotate(92.92, 400, 400)" opacity="0.60"></path><path d="M377.71 379.6C389.22 370.54 398.36 373.55 399.44 385.45 401.9 397.33 395.34 414.04 383.66 423.71 371.97 433.14 359.9 429.57 357.69 417.11 356.72 404.63 366.2 388.43 377.71 379.6" stroke-dasharray="10 10" transform="rotate(96.96, 400, 400)" opacity="0.11"></path></g></svg>