<svg xmlns="http://www.w3.org/2000/svg" version="1.1" xmlns:xlink="http://www.w3.org/1999/xlink" xmlns:svgjs="http://svgjs.dev/svgjs" viewBox="0 0 800 800"><defs><linearGradient x1="50%" y1="0%" x2="50%" y2="100%" id="ffflurry-grad" gradientTransform="rotate(270)"><stop stop-color="rgb(255, 255, 255)" stop-opacity="1" offset="0%"></stop><stop stop-color="hsl(1.4, 100%, 67%)" stop-opacity="1" offset="45%"></stop><stop stop-color="hsl(167, 52%, 78%)" stop-opacity="1" offset="100%"></stop></linearGradient></defs><rect width="100%" height="100%" fill="#ffffff"></rect><g fill="url(#ffflurry-grad)"><rect width="284" height="2" x="237" y="516" rx="1" transform="rotate(140, 379, 517)" opacity="0.96"></rect><rect width="662" height="2" x="397" y="407" rx="1" transform="rotate(140, 728, 408)" opacity="0.11"></rect><rect width="633" height="2" x="-254.5" y="694" rx="1" transform="rotate(140, 62, 695)" opacity="0.51"></rect><rect width="390" height="2" x="-144" y="434" rx="1" transform="rotate(140, 51, 435)" opacity="0.54"></rect><rect width="593" height="2" x="153.5" y="112" rx="1" transform="rotate(140, 450, 113)" opacity="0.14"></rect><rect width="253" height="2" x="120.5" y="587" rx="1" transform="rotate(140, 247, 588)" opacity="0.77"></rect><rect width="472" height="2" x="-80" y="526" rx="1" transform="rotate(140, 156, 527)" opacity="0.22"></rect><rect width="555" height="2" x="-195.5" y="140" rx="1" transform="rotate(140, 82, 141)" opacity="0.69"></rect><rect width="373" height="2" x="246.5" y="357" rx="1" transform="rotate(140, 433, 358)" opacity="0.66"></rect><rect width="456" height="2" x="375" y="151" rx="1" transform="rotate(140, 603, 152)" opacity="0.24"></rect><rect width="560" height="2" x="-96" y="712" rx="1" transform="rotate(140, 184, 713)" opacity="0.65"></rect><rect width="504" height="2" x="13" y="76" rx="1" transform="rotate(140, 265, 77)" opacity="0.50"></rect><rect width="689" height="2" x="-65.5" y="248" rx="1" transform="rotate(140, 279, 249)" opacity="0.79"></rect><rect width="260" height="2" x="177" y="750" rx="1" transform="rotate(140, 307, 751)" opacity="0.49"></rect><rect width="483" height="2" x="-47.5" y="368" rx="1" transform="rotate(140, 194, 369)" opacity="0.80"></rect><rect width="343" height="2" x="403.5" y="585" rx="1" transform="rotate(140, 575, 586)" opacity="0.79"></rect><rect width="841" height="2" x="293.5" y="686" rx="1" transform="rotate(140, 714, 687)" opacity="0.35"></rect><rect width="124" height="2" x="437" y="734" rx="1" transform="rotate(140, 499, 735)" opacity="0.42"></rect><rect width="361" height="2" x="556.5" y="127" rx="1" transform="rotate(140, 737, 128)" opacity="0.62"></rect><rect width="224" height="2" x="261" y="652" rx="1" transform="rotate(140, 373, 653)" opacity="0.58"></rect><rect width="549" height="2" x="306.5" y="390" rx="1" transform="rotate(140, 581, 391)" opacity="0.39"></rect></g></svg>