<svg xmlns="http://www.w3.org/2000/svg" version="1.1" xmlns:xlink="http://www.w3.org/1999/xlink" xmlns:svgjs="http://svgjs.dev/svgjs" viewBox="0 0 800 800" opacity="0.2" width="800" height="800"><g stroke-width="0.5" stroke="hsla(0, 0%, 100%, 1.00)" fill="none"><rect width="53.333333333333336" height="53.333333333333336" x="0" y="0" opacity="0.15"></rect><circle r="3.75" cx="0" cy="0" fill="hsla(0, 0%, 100%, 1.00)" stroke="none"></circle><rect width="53.333333333333336" height="53.333333333333336" x="53.333333333333336" y="0" opacity="0.15"></rect><circle r="3.75" cx="53.333333333333336" cy="0" fill="hsla(0, 0%, 100%, 1.00)" stroke="none"></circle><rect width="53.333333333333336" height="53.333333333333336" x="106.66666666666667" y="0" opacity="0.15"></rect><circle r="3.75" cx="106.66666666666667" cy="0" fill="hsla(0, 0%, 100%, 1.00)" stroke="none"></circle><rect width="53.333333333333336" height="53.333333333333336" x="160" y="0" opacity="0.15"></rect><circle r="3.75" cx="160" cy="0" fill="hsla(0, 0%, 100%, 1.00)" stroke="none"></circle><rect width="53.333333333333336" height="53.333333333333336" x="213.33333333333334" y="0" opacity="0.15"></rect><circle r="3.75" cx="213.33333333333334" cy="0" fill="hsla(0, 0%, 100%, 1.00)" stroke="none"></circle><rect width="53.333333333333336" height="53.333333333333336" x="266.6666666666667" y="0" opacity="0.15"></rect><circle r="3.75" cx="266.6666666666667" cy="0" fill="hsla(0, 0%, 100%, 1.00)" stroke="none"></circle><rect width="53.333333333333336" height="53.333333333333336" x="320" y="0" opacity="0.15"></rect><circle r="3.75" cx="320" cy="0" fill="hsla(0, 0%, 100%, 1.00)" stroke="none"></circle><rect width="53.333333333333336" height="53.333333333333336" x="373.3333333333333" y="0" opacity="0.15"></rect><circle r="3.75" cx="373.3333333333333" cy="0" fill="hsla(0, 0%, 100%, 1.00)" stroke="none"></circle><rect width="53.333333333333336" height="53.333333333333336" x="426.66666666666663" y="0" opacity="0.15"></rect><circle r="3.75" cx="426.66666666666663" cy="0" fill="hsla(0, 0%, 100%, 1.00)" stroke="none"></circle><rect width="53.333333333333336" height="53.333333333333336" x="479.99999999999994" y="0" opacity="0.15"></rect><circle r="3.75" cx="479.99999999999994" cy="0" fill="hsla(0, 0%, 100%, 1.00)" stroke="none"></circle><rect width="53.333333333333336" height="53.333333333333336" x="533.3333333333333" y="0" opacity="0.15"></rect><circle r="3.75" cx="533.3333333333333" cy="0" fill="hsla(0, 0%, 100%, 1.00)" stroke="none"></circle><rect width="53.333333333333336" height="53.333333333333336" x="586.6666666666666" y="0" opacity="0.15"></rect><circle r="3.75" cx="586.6666666666666" cy="0" fill="hsla(0, 0%, 100%, 1.00)" stroke="none"></circle><rect width="53.333333333333336" height="53.333333333333336" x="640" y="0" opacity="0.15"></rect><circle r="3.75" cx="640" cy="0" fill="hsla(0, 0%, 100%, 1.00)" stroke="none"></circle><rect width="53.333333333333336" height="53.333333333333336" x="693.3333333333334" y="0" opacity="0.15"></rect><circle r="3.75" cx="693.3333333333334" cy="0" fill="hsla(0, 0%, 100%, 1.00)" stroke="none"></circle><rect width="53.333333333333336" height="53.333333333333336" x="746.6666666666667" y="0" opacity="0.15"></rect><circle r="3.75" cx="746.6666666666667" cy="0" fill="hsla(0, 0%, 100%, 1.00)" stroke="none"></circle><rect width="53.333333333333336" height="53.333333333333336" x="800.0000000000001" y="0" opacity="0.15"></rect><circle r="3.75" cx="800.0000000000001" cy="0" fill="hsla(0, 0%, 100%, 1.00)" stroke="none"></circle><rect width="53.333333333333336" height="53.333333333333336" x="0" y="53.333333333333336" opacity="0.15"></rect><circle r="3.75" cx="0" cy="53.333333333333336" fill="hsla(0, 0%, 100%, 1.00)" stroke="none"></circle><rect width="53.333333333333336" height="53.333333333333336" x="53.333333333333336" y="53.333333333333336" opacity="0.15"></rect><circle r="3.75" cx="53.333333333333336" cy="53.333333333333336" fill="hsla(0, 0%, 100%, 1.00)" stroke="none"></circle><rect width="53.333333333333336" height="53.333333333333336" x="106.66666666666667" y="53.333333333333336" opacity="0.15"></rect><circle r="3.75" cx="106.66666666666667" cy="53.333333333333336" fill="hsla(0, 0%, 100%, 1.00)" stroke="none"></circle><rect width="53.333333333333336" height="53.333333333333336" x="160" y="53.333333333333336" opacity="0.15"></rect><circle r="3.75" cx="160" cy="53.333333333333336" fill="hsla(0, 0%, 100%, 1.00)" stroke="none"></circle><rect width="53.333333333333336" height="53.333333333333336" x="213.33333333333334" y="53.333333333333336" opacity="0.15"></rect><circle r="3.75" cx="213.33333333333334" cy="53.333333333333336" fill="hsla(0, 0%, 100%, 1.00)" stroke="none"></circle><rect width="53.333333333333336" height="53.333333333333336" x="266.6666666666667" y="53.333333333333336" opacity="0.15"></rect><circle r="3.75" cx="266.6666666666667" cy="53.333333333333336" fill="hsla(0, 0%, 100%, 1.00)" stroke="none"></circle><rect width="53.333333333333336" height="53.333333333333336" x="320" y="53.333333333333336" opacity="0.15"></rect><circle r="3.75" cx="320" cy="53.333333333333336" fill="hsla(0, 0%, 100%, 1.00)" stroke="none"></circle><rect width="53.333333333333336" height="53.333333333333336" x="373.3333333333333" y="53.333333333333336" opacity="0.15"></rect><circle r="3.75" cx="373.3333333333333" cy="53.333333333333336" fill="hsla(0, 0%, 100%, 1.00)" stroke="none"></circle><rect width="53.333333333333336" height="53.333333333333336" x="426.66666666666663" y="53.333333333333336" opacity="0.15"></rect><circle r="3.75" cx="426.66666666666663" cy="53.333333333333336" fill="hsla(0, 0%, 100%, 1.00)" stroke="none"></circle><rect width="53.333333333333336" height="53.333333333333336" x="479.99999999999994" y="53.333333333333336" opacity="0.15"></rect><circle r="3.75" cx="479.99999999999994" cy="53.333333333333336" fill="hsla(0, 0%, 100%, 1.00)" stroke="none"></circle><rect width="53.333333333333336" height="53.333333333333336" x="533.3333333333333" y="53.333333333333336" opacity="0.15"></rect><circle r="3.75" cx="533.3333333333333" cy="53.333333333333336" fill="hsla(0, 0%, 100%, 1.00)" stroke="none"></circle><rect width="53.333333333333336" height="53.333333333333336" x="586.6666666666666" y="53.333333333333336" opacity="0.15"></rect><circle r="3.75" cx="586.6666666666666" cy="53.333333333333336" fill="hsla(0, 0%, 100%, 1.00)" stroke="none"></circle><rect width="53.333333333333336" height="53.333333333333336" x="640" y="53.333333333333336" opacity="0.15"></rect><circle r="3.75" cx="640" cy="53.333333333333336" fill="hsla(0, 0%, 100%, 1.00)" stroke="none"></circle><rect width="53.333333333333336" height="53.333333333333336" x="693.3333333333334" y="53.333333333333336" opacity="0.15"></rect><circle r="3.75" cx="693.3333333333334" cy="53.333333333333336" fill="hsla(0, 0%, 100%, 1.00)" stroke="none"></circle><rect width="53.333333333333336" height="53.333333333333336" x="746.6666666666667" y="53.333333333333336" opacity="0.15"></rect><circle r="3.75" cx="746.6666666666667" cy="53.333333333333336" fill="hsla(0, 0%, 100%, 1.00)" stroke="none"></circle><rect width="53.333333333333336" height="53.333333333333336" x="800.0000000000001" y="53.333333333333336" opacity="0.15"></rect><circle r="3.75" cx="800.0000000000001" cy="53.333333333333336" fill="hsla(0, 0%, 100%, 1.00)" stroke="none"></circle><rect width="53.333333333333336" height="53.333333333333336" x="0" y="106.66666666666667" opacity="0.15"></rect><circle r="3.75" cx="0" cy="106.66666666666667" fill="hsla(0, 0%, 100%, 1.00)" stroke="none"></circle><rect width="53.333333333333336" height="53.333333333333336" x="53.333333333333336" y="106.66666666666667" opacity="0.15"></rect><circle r="3.75" cx="53.333333333333336" cy="106.66666666666667" fill="hsla(0, 0%, 100%, 1.00)" stroke="none"></circle><rect width="53.333333333333336" height="53.333333333333336" x="106.66666666666667" y="106.66666666666667" opacity="0.15"></rect><circle r="3.75" cx="106.66666666666667" cy="106.66666666666667" fill="hsla(0, 0%, 100%, 1.00)" stroke="none"></circle><rect width="53.333333333333336" height="53.333333333333336" x="160" y="106.66666666666667" opacity="0.15"></rect><circle r="3.75" cx="160" cy="106.66666666666667" fill="hsla(0, 0%, 100%, 1.00)" stroke="none"></circle><rect width="53.333333333333336" height="53.333333333333336" x="213.33333333333334" y="106.66666666666667" opacity="0.15"></rect><circle r="3.75" cx="213.33333333333334" cy="106.66666666666667" fill="hsla(0, 0%, 100%, 1.00)" stroke="none"></circle><rect width="53.333333333333336" height="53.333333333333336" x="266.6666666666667" y="106.66666666666667" opacity="0.15"></rect><circle r="3.75" cx="266.6666666666667" cy="106.66666666666667" fill="hsla(0, 0%, 100%, 1.00)" stroke="none"></circle><rect width="53.333333333333336" height="53.333333333333336" x="320" y="106.66666666666667" opacity="0.15"></rect><circle r="3.75" cx="320" cy="106.66666666666667" fill="hsla(0, 0%, 100%, 1.00)" stroke="none"></circle><rect width="53.333333333333336" height="53.333333333333336" x="373.3333333333333" y="106.66666666666667" opacity="0.15"></rect><circle r="3.75" cx="373.3333333333333" cy="106.66666666666667" fill="hsla(0, 0%, 100%, 1.00)" stroke="none"></circle><rect width="53.333333333333336" height="53.333333333333336" x="426.66666666666663" y="106.66666666666667" opacity="0.15"></rect><circle r="3.75" cx="426.66666666666663" cy="106.66666666666667" fill="hsla(0, 0%, 100%, 1.00)" stroke="none"></circle><rect width="53.333333333333336" height="53.333333333333336" x="479.99999999999994" y="106.66666666666667" opacity="0.15"></rect><circle r="3.75" cx="479.99999999999994" cy="106.66666666666667" fill="hsla(0, 0%, 100%, 1.00)" stroke="none"></circle><rect width="53.333333333333336" height="53.333333333333336" x="533.3333333333333" y="106.66666666666667" opacity="0.15"></rect><circle r="3.75" cx="533.3333333333333" cy="106.66666666666667" fill="hsla(0, 0%, 100%, 1.00)" stroke="none"></circle><rect width="53.333333333333336" height="53.333333333333336" x="586.6666666666666" y="106.66666666666667" opacity="0.15"></rect><circle r="3.75" cx="586.6666666666666" cy="106.66666666666667" fill="hsla(0, 0%, 100%, 1.00)" stroke="none"></circle><rect width="53.333333333333336" height="53.333333333333336" x="640" y="106.66666666666667" opacity="0.15"></rect><circle r="3.75" cx="640" cy="106.66666666666667" fill="hsla(0, 0%, 100%, 1.00)" stroke="none"></circle><rect width="53.333333333333336" height="53.333333333333336" x="693.3333333333334" y="106.66666666666667" opacity="0.15"></rect><circle r="3.75" cx="693.3333333333334" cy="106.66666666666667" fill="hsla(0, 0%, 100%, 1.00)" stroke="none"></circle><rect width="53.333333333333336" height="53.333333333333336" x="746.6666666666667" y="106.66666666666667" opacity="0.15"></rect><circle r="3.75" cx="746.6666666666667" cy="106.66666666666667" fill="hsla(0, 0%, 100%, 1.00)" stroke="none"></circle><rect width="53.333333333333336" height="53.333333333333336" x="800.0000000000001" y="106.66666666666667" opacity="0.15"></rect><circle r="3.75" cx="800.0000000000001" cy="106.66666666666667" fill="hsla(0, 0%, 100%, 1.00)" stroke="none"></circle><rect width="53.333333333333336" height="53.333333333333336" x="0" y="160" opacity="0.15"></rect><circle r="3.75" cx="0" cy="160" fill="hsla(0, 0%, 100%, 1.00)" stroke="none"></circle><rect width="53.333333333333336" height="53.333333333333336" x="53.333333333333336" y="160" opacity="0.15"></rect><circle r="3.75" cx="53.333333333333336" cy="160" fill="hsla(0, 0%, 100%, 1.00)" stroke="none"></circle><rect width="53.333333333333336" height="53.333333333333336" x="106.66666666666667" y="160" opacity="0.15"></rect><circle r="3.75" cx="106.66666666666667" cy="160" fill="hsla(0, 0%, 100%, 1.00)" stroke="none"></circle><rect width="53.333333333333336" height="53.333333333333336" x="160" y="160" opacity="0.15"></rect><circle r="3.75" cx="160" cy="160" fill="hsla(0, 0%, 100%, 1.00)" stroke="none"></circle><rect width="53.333333333333336" height="53.333333333333336" x="213.33333333333334" y="160" opacity="0.15"></rect><circle r="3.75" cx="213.33333333333334" cy="160" fill="hsla(0, 0%, 100%, 1.00)" stroke="none"></circle><rect width="53.333333333333336" height="53.333333333333336" x="266.6666666666667" y="160" opacity="0.15"></rect><circle r="3.75" cx="266.6666666666667" cy="160" fill="hsla(0, 0%, 100%, 1.00)" stroke="none"></circle><rect width="53.333333333333336" height="53.333333333333336" x="320" y="160" opacity="0.15"></rect><circle r="3.75" cx="320" cy="160" fill="hsla(0, 0%, 100%, 1.00)" stroke="none"></circle><rect width="53.333333333333336" height="53.333333333333336" x="373.3333333333333" y="160" opacity="0.15"></rect><circle r="3.75" cx="373.3333333333333" cy="160" fill="hsla(0, 0%, 100%, 1.00)" stroke="none"></circle><rect width="53.333333333333336" height="53.333333333333336" x="426.66666666666663" y="160" opacity="0.15"></rect><circle r="3.75" cx="426.66666666666663" cy="160" fill="hsla(0, 0%, 100%, 1.00)" stroke="none"></circle><rect width="53.333333333333336" height="53.333333333333336" x="479.99999999999994" y="160" opacity="0.15"></rect><circle r="3.75" cx="479.99999999999994" cy="160" fill="hsla(0, 0%, 100%, 1.00)" stroke="none"></circle><rect width="53.333333333333336" height="53.333333333333336" x="533.3333333333333" y="160" opacity="0.15"></rect><circle r="3.75" cx="533.3333333333333" cy="160" fill="hsla(0, 0%, 100%, 1.00)" stroke="none"></circle><rect width="53.333333333333336" height="53.333333333333336" x="586.6666666666666" y="160" opacity="0.15"></rect><circle r="3.75" cx="586.6666666666666" cy="160" fill="hsla(0, 0%, 100%, 1.00)" stroke="none"></circle><rect width="53.333333333333336" height="53.333333333333336" x="640" y="160" opacity="0.15"></rect><circle r="3.75" cx="640" cy="160" fill="hsla(0, 0%, 100%, 1.00)" stroke="none"></circle><rect width="53.333333333333336" height="53.333333333333336" x="693.3333333333334" y="160" opacity="0.15"></rect><circle r="3.75" cx="693.3333333333334" cy="160" fill="hsla(0, 0%, 100%, 1.00)" stroke="none"></circle><rect width="53.333333333333336" height="53.333333333333336" x="746.6666666666667" y="160" opacity="0.15"></rect><circle r="3.75" cx="746.6666666666667" cy="160" fill="hsla(0, 0%, 100%, 1.00)" stroke="none"></circle><rect width="53.333333333333336" height="53.333333333333336" x="800.0000000000001" y="160" opacity="0.15"></rect><circle r="3.75" cx="800.0000000000001" cy="160" fill="hsla(0, 0%, 100%, 1.00)" stroke="none"></circle><rect width="53.333333333333336" height="53.333333333333336" x="0" y="213.33333333333334" opacity="0.15"></rect><circle r="3.75" cx="0" cy="213.33333333333334" fill="hsla(0, 0%, 100%, 1.00)" stroke="none"></circle><rect width="53.333333333333336" height="53.333333333333336" x="53.333333333333336" y="213.33333333333334" opacity="0.15"></rect><circle r="3.75" cx="53.333333333333336" cy="213.33333333333334" fill="hsla(0, 0%, 100%, 1.00)" stroke="none"></circle><rect width="53.333333333333336" height="53.333333333333336" x="106.66666666666667" y="213.33333333333334" opacity="0.15"></rect><circle r="3.75" cx="106.66666666666667" cy="213.33333333333334" fill="hsla(0, 0%, 100%, 1.00)" stroke="none"></circle><rect width="53.333333333333336" height="53.333333333333336" x="160" y="213.33333333333334" opacity="0.15"></rect><circle r="3.75" cx="160" cy="213.33333333333334" fill="hsla(0, 0%, 100%, 1.00)" stroke="none"></circle><rect width="53.333333333333336" height="53.333333333333336" x="213.33333333333334" y="213.33333333333334" opacity="0.15"></rect><circle r="3.75" cx="213.33333333333334" cy="213.33333333333334" fill="hsla(0, 0%, 100%, 1.00)" stroke="none"></circle><rect width="53.333333333333336" height="53.333333333333336" x="266.6666666666667" y="213.33333333333334" opacity="0.15"></rect><circle r="3.75" cx="266.6666666666667" cy="213.33333333333334" fill="hsla(0, 0%, 100%, 1.00)" stroke="none"></circle><rect width="53.333333333333336" height="53.333333333333336" x="320" y="213.33333333333334" opacity="0.15"></rect><circle r="3.75" cx="320" cy="213.33333333333334" fill="hsla(0, 0%, 100%, 1.00)" stroke="none"></circle><rect width="53.333333333333336" height="53.333333333333336" x="373.3333333333333" y="213.33333333333334" opacity="0.15"></rect><circle r="3.75" cx="373.3333333333333" cy="213.33333333333334" fill="hsla(0, 0%, 100%, 1.00)" stroke="none"></circle><rect width="53.333333333333336" height="53.333333333333336" x="426.66666666666663" y="213.33333333333334" opacity="0.15"></rect><circle r="3.75" cx="426.66666666666663" cy="213.33333333333334" fill="hsla(0, 0%, 100%, 1.00)" stroke="none"></circle><rect width="53.333333333333336" height="53.333333333333336" x="479.99999999999994" y="213.33333333333334" opacity="0.15"></rect><circle r="3.75" cx="479.99999999999994" cy="213.33333333333334" fill="hsla(0, 0%, 100%, 1.00)" stroke="none"></circle><rect width="53.333333333333336" height="53.333333333333336" x="533.3333333333333" y="213.33333333333334" opacity="0.15"></rect><circle r="3.75" cx="533.3333333333333" cy="213.33333333333334" fill="hsla(0, 0%, 100%, 1.00)" stroke="none"></circle><rect width="53.333333333333336" height="53.333333333333336" x="586.6666666666666" y="213.33333333333334" opacity="0.15"></rect><circle r="3.75" cx="586.6666666666666" cy="213.33333333333334" fill="hsla(0, 0%, 100%, 1.00)" stroke="none"></circle><rect width="53.333333333333336" height="53.333333333333336" x="640" y="213.33333333333334" opacity="0.15"></rect><circle r="3.75" cx="640" cy="213.33333333333334" fill="hsla(0, 0%, 100%, 1.00)" stroke="none"></circle><rect width="53.333333333333336" height="53.333333333333336" x="693.3333333333334" y="213.33333333333334" opacity="0.15"></rect><circle r="3.75" cx="693.3333333333334" cy="213.33333333333334" fill="hsla(0, 0%, 100%, 1.00)" stroke="none"></circle><rect width="53.333333333333336" height="53.333333333333336" x="746.6666666666667" y="213.33333333333334" opacity="0.15"></rect><circle r="3.75" cx="746.6666666666667" cy="213.33333333333334" fill="hsla(0, 0%, 100%, 1.00)" stroke="none"></circle><rect width="53.333333333333336" height="53.333333333333336" x="800.0000000000001" y="213.33333333333334" opacity="0.15"></rect><circle r="3.75" cx="800.0000000000001" cy="213.33333333333334" fill="hsla(0, 0%, 100%, 1.00)" stroke="none"></circle><rect width="53.333333333333336" height="53.333333333333336" x="0" y="266.6666666666667" opacity="0.15"></rect><circle r="3.75" cx="0" cy="266.6666666666667" fill="hsla(0, 0%, 100%, 1.00)" stroke="none"></circle><rect width="53.333333333333336" height="53.333333333333336" x="53.333333333333336" y="266.6666666666667" opacity="0.15"></rect><circle r="3.75" cx="53.333333333333336" cy="266.6666666666667" fill="hsla(0, 0%, 100%, 1.00)" stroke="none"></circle><rect width="53.333333333333336" height="53.333333333333336" x="106.66666666666667" y="266.6666666666667" opacity="0.15"></rect><circle r="3.75" cx="106.66666666666667" cy="266.6666666666667" fill="hsla(0, 0%, 100%, 1.00)" stroke="none"></circle><rect width="53.333333333333336" height="53.333333333333336" x="160" y="266.6666666666667" opacity="0.15"></rect><circle r="3.75" cx="160" cy="266.6666666666667" fill="hsla(0, 0%, 100%, 1.00)" stroke="none"></circle><rect width="53.333333333333336" height="53.333333333333336" x="213.33333333333334" y="266.6666666666667" opacity="0.15"></rect><circle r="3.75" cx="213.33333333333334" cy="266.6666666666667" fill="hsla(0, 0%, 100%, 1.00)" stroke="none"></circle><rect width="53.333333333333336" height="53.333333333333336" x="266.6666666666667" y="266.6666666666667" opacity="0.15"></rect><circle r="3.75" cx="266.6666666666667" cy="266.6666666666667" fill="hsla(0, 0%, 100%, 1.00)" stroke="none"></circle><rect width="53.333333333333336" height="53.333333333333336" x="320" y="266.6666666666667" opacity="0.15"></rect><circle r="3.75" cx="320" cy="266.6666666666667" fill="hsla(0, 0%, 100%, 1.00)" stroke="none"></circle><rect width="53.333333333333336" height="53.333333333333336" x="373.3333333333333" y="266.6666666666667" opacity="0.15"></rect><circle r="3.75" cx="373.3333333333333" cy="266.6666666666667" fill="hsla(0, 0%, 100%, 1.00)" stroke="none"></circle><rect width="53.333333333333336" height="53.333333333333336" x="426.66666666666663" y="266.6666666666667" opacity="0.15"></rect><circle r="3.75" cx="426.66666666666663" cy="266.6666666666667" fill="hsla(0, 0%, 100%, 1.00)" stroke="none"></circle><rect width="53.333333333333336" height="53.333333333333336" x="479.99999999999994" y="266.6666666666667" opacity="0.15"></rect><circle r="3.75" cx="479.99999999999994" cy="266.6666666666667" fill="hsla(0, 0%, 100%, 1.00)" stroke="none"></circle><rect width="53.333333333333336" height="53.333333333333336" x="533.3333333333333" y="266.6666666666667" opacity="0.15"></rect><circle r="3.75" cx="533.3333333333333" cy="266.6666666666667" fill="hsla(0, 0%, 100%, 1.00)" stroke="none"></circle><rect width="53.333333333333336" height="53.333333333333336" x="586.6666666666666" y="266.6666666666667" opacity="0.15"></rect><circle r="3.75" cx="586.6666666666666" cy="266.6666666666667" fill="hsla(0, 0%, 100%, 1.00)" stroke="none"></circle><rect width="53.333333333333336" height="53.333333333333336" x="640" y="266.6666666666667" opacity="0.15"></rect><circle r="3.75" cx="640" cy="266.6666666666667" fill="hsla(0, 0%, 100%, 1.00)" stroke="none"></circle><rect width="53.333333333333336" height="53.333333333333336" x="693.3333333333334" y="266.6666666666667" opacity="0.15"></rect><circle r="3.75" cx="693.3333333333334" cy="266.6666666666667" fill="hsla(0, 0%, 100%, 1.00)" stroke="none"></circle><rect width="53.333333333333336" height="53.333333333333336" x="746.6666666666667" y="266.6666666666667" opacity="0.15"></rect><circle r="3.75" cx="746.6666666666667" cy="266.6666666666667" fill="hsla(0, 0%, 100%, 1.00)" stroke="none"></circle><rect width="53.333333333333336" height="53.333333333333336" x="800.0000000000001" y="266.6666666666667" opacity="0.15"></rect><circle r="3.75" cx="800.0000000000001" cy="266.6666666666667" fill="hsla(0, 0%, 100%, 1.00)" stroke="none"></circle><rect width="53.333333333333336" height="53.333333333333336" x="0" y="320" opacity="0.15"></rect><circle r="3.75" cx="0" cy="320" fill="hsla(0, 0%, 100%, 1.00)" stroke="none"></circle><rect width="53.333333333333336" height="53.333333333333336" x="53.333333333333336" y="320" opacity="0.15"></rect><circle r="3.75" cx="53.333333333333336" cy="320" fill="hsla(0, 0%, 100%, 1.00)" stroke="none"></circle><rect width="53.333333333333336" height="53.333333333333336" x="106.66666666666667" y="320" opacity="0.15"></rect><circle r="3.75" cx="106.66666666666667" cy="320" fill="hsla(0, 0%, 100%, 1.00)" stroke="none"></circle><rect width="53.333333333333336" height="53.333333333333336" x="160" y="320" opacity="0.15"></rect><circle r="3.75" cx="160" cy="320" fill="hsla(0, 0%, 100%, 1.00)" stroke="none"></circle><rect width="53.333333333333336" height="53.333333333333336" x="213.33333333333334" y="320" opacity="0.15"></rect><circle r="3.75" cx="213.33333333333334" cy="320" fill="hsla(0, 0%, 100%, 1.00)" stroke="none"></circle><rect width="53.333333333333336" height="53.333333333333336" x="266.6666666666667" y="320" opacity="0.15"></rect><circle r="3.75" cx="266.6666666666667" cy="320" fill="hsla(0, 0%, 100%, 1.00)" stroke="none"></circle><rect width="53.333333333333336" height="53.333333333333336" x="320" y="320" opacity="0.15"></rect><circle r="3.75" cx="320" cy="320" fill="hsla(0, 0%, 100%, 1.00)" stroke="none"></circle><rect width="53.333333333333336" height="53.333333333333336" x="373.3333333333333" y="320" opacity="0.15"></rect><circle r="3.75" cx="373.3333333333333" cy="320" fill="hsla(0, 0%, 100%, 1.00)" stroke="none"></circle><rect width="53.333333333333336" height="53.333333333333336" x="426.66666666666663" y="320" opacity="0.15"></rect><circle r="3.75" cx="426.66666666666663" cy="320" fill="hsla(0, 0%, 100%, 1.00)" stroke="none"></circle><rect width="53.333333333333336" height="53.333333333333336" x="479.99999999999994" y="320" opacity="0.15"></rect><circle r="3.75" cx="479.99999999999994" cy="320" fill="hsla(0, 0%, 100%, 1.00)" stroke="none"></circle><rect width="53.333333333333336" height="53.333333333333336" x="533.3333333333333" y="320" opacity="0.15"></rect><circle r="3.75" cx="533.3333333333333" cy="320" fill="hsla(0, 0%, 100%, 1.00)" stroke="none"></circle><rect width="53.333333333333336" height="53.333333333333336" x="586.6666666666666" y="320" opacity="0.15"></rect><circle r="3.75" cx="586.6666666666666" cy="320" fill="hsla(0, 0%, 100%, 1.00)" stroke="none"></circle><rect width="53.333333333333336" height="53.333333333333336" x="640" y="320" opacity="0.15"></rect><circle r="3.75" cx="640" cy="320" fill="hsla(0, 0%, 100%, 1.00)" stroke="none"></circle><rect width="53.333333333333336" height="53.333333333333336" x="693.3333333333334" y="320" opacity="0.15"></rect><circle r="3.75" cx="693.3333333333334" cy="320" fill="hsla(0, 0%, 100%, 1.00)" stroke="none"></circle><rect width="53.333333333333336" height="53.333333333333336" x="746.6666666666667" y="320" opacity="0.15"></rect><circle r="3.75" cx="746.6666666666667" cy="320" fill="hsla(0, 0%, 100%, 1.00)" stroke="none"></circle><rect width="53.333333333333336" height="53.333333333333336" x="800.0000000000001" y="320" opacity="0.15"></rect><circle r="3.75" cx="800.0000000000001" cy="320" fill="hsla(0, 0%, 100%, 1.00)" stroke="none"></circle><rect width="53.333333333333336" height="53.333333333333336" x="0" y="373.3333333333333" opacity="0.15"></rect><circle r="3.75" cx="0" cy="373.3333333333333" fill="hsla(0, 0%, 100%, 1.00)" stroke="none"></circle><rect width="53.333333333333336" height="53.333333333333336" x="53.333333333333336" y="373.3333333333333" opacity="0.15"></rect><circle r="3.75" cx="53.333333333333336" cy="373.3333333333333" fill="hsla(0, 0%, 100%, 1.00)" stroke="none"></circle><rect width="53.333333333333336" height="53.333333333333336" x="106.66666666666667" y="373.3333333333333" opacity="0.15"></rect><circle r="3.75" cx="106.66666666666667" cy="373.3333333333333" fill="hsla(0, 0%, 100%, 1.00)" stroke="none"></circle><rect width="53.333333333333336" height="53.333333333333336" x="160" y="373.3333333333333" opacity="0.15"></rect><circle r="3.75" cx="160" cy="373.3333333333333" fill="hsla(0, 0%, 100%, 1.00)" stroke="none"></circle><rect width="53.333333333333336" height="53.333333333333336" x="213.33333333333334" y="373.3333333333333" opacity="0.15"></rect><circle r="3.75" cx="213.33333333333334" cy="373.3333333333333" fill="hsla(0, 0%, 100%, 1.00)" stroke="none"></circle><rect width="53.333333333333336" height="53.333333333333336" x="266.6666666666667" y="373.3333333333333" opacity="0.15"></rect><circle r="3.75" cx="266.6666666666667" cy="373.3333333333333" fill="hsla(0, 0%, 100%, 1.00)" stroke="none"></circle><rect width="53.333333333333336" height="53.333333333333336" x="320" y="373.3333333333333" opacity="0.15"></rect><circle r="3.75" cx="320" cy="373.3333333333333" fill="hsla(0, 0%, 100%, 1.00)" stroke="none"></circle><rect width="53.333333333333336" height="53.333333333333336" x="373.3333333333333" y="373.3333333333333" opacity="0.15"></rect><circle r="3.75" cx="373.3333333333333" cy="373.3333333333333" fill="hsla(0, 0%, 100%, 1.00)" stroke="none"></circle><rect width="53.333333333333336" height="53.333333333333336" x="426.66666666666663" y="373.3333333333333" opacity="0.15"></rect><circle r="3.75" cx="426.66666666666663" cy="373.3333333333333" fill="hsla(0, 0%, 100%, 1.00)" stroke="none"></circle><rect width="53.333333333333336" height="53.333333333333336" x="479.99999999999994" y="373.3333333333333" opacity="0.15"></rect><circle r="3.75" cx="479.99999999999994" cy="373.3333333333333" fill="hsla(0, 0%, 100%, 1.00)" stroke="none"></circle><rect width="53.333333333333336" height="53.333333333333336" x="533.3333333333333" y="373.3333333333333" opacity="0.15"></rect><circle r="3.75" cx="533.3333333333333" cy="373.3333333333333" fill="hsla(0, 0%, 100%, 1.00)" stroke="none"></circle><rect width="53.333333333333336" height="53.333333333333336" x="586.6666666666666" y="373.3333333333333" opacity="0.15"></rect><circle r="3.75" cx="586.6666666666666" cy="373.3333333333333" fill="hsla(0, 0%, 100%, 1.00)" stroke="none"></circle><rect width="53.333333333333336" height="53.333333333333336" x="640" y="373.3333333333333" opacity="0.15"></rect><circle r="3.75" cx="640" cy="373.3333333333333" fill="hsla(0, 0%, 100%, 1.00)" stroke="none"></circle><rect width="53.333333333333336" height="53.333333333333336" x="693.3333333333334" y="373.3333333333333" opacity="0.15"></rect><circle r="3.75" cx="693.3333333333334" cy="373.3333333333333" fill="hsla(0, 0%, 100%, 1.00)" stroke="none"></circle><rect width="53.333333333333336" height="53.333333333333336" x="746.6666666666667" y="373.3333333333333" opacity="0.15"></rect><circle r="3.75" cx="746.6666666666667" cy="373.3333333333333" fill="hsla(0, 0%, 100%, 1.00)" stroke="none"></circle><rect width="53.333333333333336" height="53.333333333333336" x="800.0000000000001" y="373.3333333333333" opacity="0.15"></rect><circle r="3.75" cx="800.0000000000001" cy="373.3333333333333" fill="hsla(0, 0%, 100%, 1.00)" stroke="none"></circle><rect width="53.333333333333336" height="53.333333333333336" x="0" y="426.66666666666663" opacity="0.15"></rect><circle r="3.75" cx="0" cy="426.66666666666663" fill="hsla(0, 0%, 100%, 1.00)" stroke="none"></circle><rect width="53.333333333333336" height="53.333333333333336" x="53.333333333333336" y="426.66666666666663" opacity="0.15"></rect><circle r="3.75" cx="53.333333333333336" cy="426.66666666666663" fill="hsla(0, 0%, 100%, 1.00)" stroke="none"></circle><rect width="53.333333333333336" height="53.333333333333336" x="106.66666666666667" y="426.66666666666663" opacity="0.15"></rect><circle r="3.75" cx="106.66666666666667" cy="426.66666666666663" fill="hsla(0, 0%, 100%, 1.00)" stroke="none"></circle><rect width="53.333333333333336" height="53.333333333333336" x="160" y="426.66666666666663" opacity="0.15"></rect><circle r="3.75" cx="160" cy="426.66666666666663" fill="hsla(0, 0%, 100%, 1.00)" stroke="none"></circle><rect width="53.333333333333336" height="53.333333333333336" x="213.33333333333334" y="426.66666666666663" opacity="0.15"></rect><circle r="3.75" cx="213.33333333333334" cy="426.66666666666663" fill="hsla(0, 0%, 100%, 1.00)" stroke="none"></circle><rect width="53.333333333333336" height="53.333333333333336" x="266.6666666666667" y="426.66666666666663" opacity="0.15"></rect><circle r="3.75" cx="266.6666666666667" cy="426.66666666666663" fill="hsla(0, 0%, 100%, 1.00)" stroke="none"></circle><rect width="53.333333333333336" height="53.333333333333336" x="320" y="426.66666666666663" opacity="0.15"></rect><circle r="3.75" cx="320" cy="426.66666666666663" fill="hsla(0, 0%, 100%, 1.00)" stroke="none"></circle><rect width="53.333333333333336" height="53.333333333333336" x="373.3333333333333" y="426.66666666666663" opacity="0.15"></rect><circle r="3.75" cx="373.3333333333333" cy="426.66666666666663" fill="hsla(0, 0%, 100%, 1.00)" stroke="none"></circle><rect width="53.333333333333336" height="53.333333333333336" x="426.66666666666663" y="426.66666666666663" opacity="0.15"></rect><circle r="3.75" cx="426.66666666666663" cy="426.66666666666663" fill="hsla(0, 0%, 100%, 1.00)" stroke="none"></circle><rect width="53.333333333333336" height="53.333333333333336" x="479.99999999999994" y="426.66666666666663" opacity="0.15"></rect><circle r="3.75" cx="479.99999999999994" cy="426.66666666666663" fill="hsla(0, 0%, 100%, 1.00)" stroke="none"></circle><rect width="53.333333333333336" height="53.333333333333336" x="533.3333333333333" y="426.66666666666663" opacity="0.15"></rect><circle r="3.75" cx="533.3333333333333" cy="426.66666666666663" fill="hsla(0, 0%, 100%, 1.00)" stroke="none"></circle><rect width="53.333333333333336" height="53.333333333333336" x="586.6666666666666" y="426.66666666666663" opacity="0.15"></rect><circle r="3.75" cx="586.6666666666666" cy="426.66666666666663" fill="hsla(0, 0%, 100%, 1.00)" stroke="none"></circle><rect width="53.333333333333336" height="53.333333333333336" x="640" y="426.66666666666663" opacity="0.15"></rect><circle r="3.75" cx="640" cy="426.66666666666663" fill="hsla(0, 0%, 100%, 1.00)" stroke="none"></circle><rect width="53.333333333333336" height="53.333333333333336" x="693.3333333333334" y="426.66666666666663" opacity="0.15"></rect><circle r="3.75" cx="693.3333333333334" cy="426.66666666666663" fill="hsla(0, 0%, 100%, 1.00)" stroke="none"></circle><rect width="53.333333333333336" height="53.333333333333336" x="746.6666666666667" y="426.66666666666663" opacity="0.15"></rect><circle r="3.75" cx="746.6666666666667" cy="426.66666666666663" fill="hsla(0, 0%, 100%, 1.00)" stroke="none"></circle><rect width="53.333333333333336" height="53.333333333333336" x="800.0000000000001" y="426.66666666666663" opacity="0.15"></rect><circle r="3.75" cx="800.0000000000001" cy="426.66666666666663" fill="hsla(0, 0%, 100%, 1.00)" stroke="none"></circle><rect width="53.333333333333336" height="53.333333333333336" x="0" y="479.99999999999994" opacity="0.15"></rect><circle r="3.75" cx="0" cy="479.99999999999994" fill="hsla(0, 0%, 100%, 1.00)" stroke="none"></circle><rect width="53.333333333333336" height="53.333333333333336" x="53.333333333333336" y="479.99999999999994" opacity="0.15"></rect><circle r="3.75" cx="53.333333333333336" cy="479.99999999999994" fill="hsla(0, 0%, 100%, 1.00)" stroke="none"></circle><rect width="53.333333333333336" height="53.333333333333336" x="106.66666666666667" y="479.99999999999994" opacity="0.15"></rect><circle r="3.75" cx="106.66666666666667" cy="479.99999999999994" fill="hsla(0, 0%, 100%, 1.00)" stroke="none"></circle><rect width="53.333333333333336" height="53.333333333333336" x="160" y="479.99999999999994" opacity="0.15"></rect><circle r="3.75" cx="160" cy="479.99999999999994" fill="hsla(0, 0%, 100%, 1.00)" stroke="none"></circle><rect width="53.333333333333336" height="53.333333333333336" x="213.33333333333334" y="479.99999999999994" opacity="0.15"></rect><circle r="3.75" cx="213.33333333333334" cy="479.99999999999994" fill="hsla(0, 0%, 100%, 1.00)" stroke="none"></circle><rect width="53.333333333333336" height="53.333333333333336" x="266.6666666666667" y="479.99999999999994" opacity="0.15"></rect><circle r="3.75" cx="266.6666666666667" cy="479.99999999999994" fill="hsla(0, 0%, 100%, 1.00)" stroke="none"></circle><rect width="53.333333333333336" height="53.333333333333336" x="320" y="479.99999999999994" opacity="0.15"></rect><circle r="3.75" cx="320" cy="479.99999999999994" fill="hsla(0, 0%, 100%, 1.00)" stroke="none"></circle><rect width="53.333333333333336" height="53.333333333333336" x="373.3333333333333" y="479.99999999999994" opacity="0.15"></rect><circle r="3.75" cx="373.3333333333333" cy="479.99999999999994" fill="hsla(0, 0%, 100%, 1.00)" stroke="none"></circle><rect width="53.333333333333336" height="53.333333333333336" x="426.66666666666663" y="479.99999999999994" opacity="0.15"></rect><circle r="3.75" cx="426.66666666666663" cy="479.99999999999994" fill="hsla(0, 0%, 100%, 1.00)" stroke="none"></circle><rect width="53.333333333333336" height="53.333333333333336" x="479.99999999999994" y="479.99999999999994" opacity="0.15"></rect><circle r="3.75" cx="479.99999999999994" cy="479.99999999999994" fill="hsla(0, 0%, 100%, 1.00)" stroke="none"></circle><rect width="53.333333333333336" height="53.333333333333336" x="533.3333333333333" y="479.99999999999994" opacity="0.15"></rect><circle r="3.75" cx="533.3333333333333" cy="479.99999999999994" fill="hsla(0, 0%, 100%, 1.00)" stroke="none"></circle><rect width="53.333333333333336" height="53.333333333333336" x="586.6666666666666" y="479.99999999999994" opacity="0.15"></rect><circle r="3.75" cx="586.6666666666666" cy="479.99999999999994" fill="hsla(0, 0%, 100%, 1.00)" stroke="none"></circle><rect width="53.333333333333336" height="53.333333333333336" x="640" y="479.99999999999994" opacity="0.15"></rect><circle r="3.75" cx="640" cy="479.99999999999994" fill="hsla(0, 0%, 100%, 1.00)" stroke="none"></circle><rect width="53.333333333333336" height="53.333333333333336" x="693.3333333333334" y="479.99999999999994" opacity="0.15"></rect><circle r="3.75" cx="693.3333333333334" cy="479.99999999999994" fill="hsla(0, 0%, 100%, 1.00)" stroke="none"></circle><rect width="53.333333333333336" height="53.333333333333336" x="746.6666666666667" y="479.99999999999994" opacity="0.15"></rect><circle r="3.75" cx="746.6666666666667" cy="479.99999999999994" fill="hsla(0, 0%, 100%, 1.00)" stroke="none"></circle><rect width="53.333333333333336" height="53.333333333333336" x="800.0000000000001" y="479.99999999999994" opacity="0.15"></rect><circle r="3.75" cx="800.0000000000001" cy="479.99999999999994" fill="hsla(0, 0%, 100%, 1.00)" stroke="none"></circle><rect width="53.333333333333336" height="53.333333333333336" x="0" y="533.3333333333333" opacity="0.15"></rect><circle r="3.75" cx="0" cy="533.3333333333333" fill="hsla(0, 0%, 100%, 1.00)" stroke="none"></circle><rect width="53.333333333333336" height="53.333333333333336" x="53.333333333333336" y="533.3333333333333" opacity="0.15"></rect><circle r="3.75" cx="53.333333333333336" cy="533.3333333333333" fill="hsla(0, 0%, 100%, 1.00)" stroke="none"></circle><rect width="53.333333333333336" height="53.333333333333336" x="106.66666666666667" y="533.3333333333333" opacity="0.15"></rect><circle r="3.75" cx="106.66666666666667" cy="533.3333333333333" fill="hsla(0, 0%, 100%, 1.00)" stroke="none"></circle><rect width="53.333333333333336" height="53.333333333333336" x="160" y="533.3333333333333" opacity="0.15"></rect><circle r="3.75" cx="160" cy="533.3333333333333" fill="hsla(0, 0%, 100%, 1.00)" stroke="none"></circle><rect width="53.333333333333336" height="53.333333333333336" x="213.33333333333334" y="533.3333333333333" opacity="0.15"></rect><circle r="3.75" cx="213.33333333333334" cy="533.3333333333333" fill="hsla(0, 0%, 100%, 1.00)" stroke="none"></circle><rect width="53.333333333333336" height="53.333333333333336" x="266.6666666666667" y="533.3333333333333" opacity="0.15"></rect><circle r="3.75" cx="266.6666666666667" cy="533.3333333333333" fill="hsla(0, 0%, 100%, 1.00)" stroke="none"></circle><rect width="53.333333333333336" height="53.333333333333336" x="320" y="533.3333333333333" opacity="0.15"></rect><circle r="3.75" cx="320" cy="533.3333333333333" fill="hsla(0, 0%, 100%, 1.00)" stroke="none"></circle><rect width="53.333333333333336" height="53.333333333333336" x="373.3333333333333" y="533.3333333333333" opacity="0.15"></rect><circle r="3.75" cx="373.3333333333333" cy="533.3333333333333" fill="hsla(0, 0%, 100%, 1.00)" stroke="none"></circle><rect width="53.333333333333336" height="53.333333333333336" x="426.66666666666663" y="533.3333333333333" opacity="0.15"></rect><circle r="3.75" cx="426.66666666666663" cy="533.3333333333333" fill="hsla(0, 0%, 100%, 1.00)" stroke="none"></circle><rect width="53.333333333333336" height="53.333333333333336" x="479.99999999999994" y="533.3333333333333" opacity="0.15"></rect><circle r="3.75" cx="479.99999999999994" cy="533.3333333333333" fill="hsla(0, 0%, 100%, 1.00)" stroke="none"></circle><rect width="53.333333333333336" height="53.333333333333336" x="533.3333333333333" y="533.3333333333333" opacity="0.15"></rect><circle r="3.75" cx="533.3333333333333" cy="533.3333333333333" fill="hsla(0, 0%, 100%, 1.00)" stroke="none"></circle><rect width="53.333333333333336" height="53.333333333333336" x="586.6666666666666" y="533.3333333333333" opacity="0.15"></rect><circle r="3.75" cx="586.6666666666666" cy="533.3333333333333" fill="hsla(0, 0%, 100%, 1.00)" stroke="none"></circle><rect width="53.333333333333336" height="53.333333333333336" x="640" y="533.3333333333333" opacity="0.15"></rect><circle r="3.75" cx="640" cy="533.3333333333333" fill="hsla(0, 0%, 100%, 1.00)" stroke="none"></circle><rect width="53.333333333333336" height="53.333333333333336" x="693.3333333333334" y="533.3333333333333" opacity="0.15"></rect><circle r="3.75" cx="693.3333333333334" cy="533.3333333333333" fill="hsla(0, 0%, 100%, 1.00)" stroke="none"></circle><rect width="53.333333333333336" height="53.333333333333336" x="746.6666666666667" y="533.3333333333333" opacity="0.15"></rect><circle r="3.75" cx="746.6666666666667" cy="533.3333333333333" fill="hsla(0, 0%, 100%, 1.00)" stroke="none"></circle><rect width="53.333333333333336" height="53.333333333333336" x="800.0000000000001" y="533.3333333333333" opacity="0.15"></rect><circle r="3.75" cx="800.0000000000001" cy="533.3333333333333" fill="hsla(0, 0%, 100%, 1.00)" stroke="none"></circle><rect width="53.333333333333336" height="53.333333333333336" x="0" y="586.6666666666666" opacity="0.15"></rect><circle r="3.75" cx="0" cy="586.6666666666666" fill="hsla(0, 0%, 100%, 1.00)" stroke="none"></circle><rect width="53.333333333333336" height="53.333333333333336" x="53.333333333333336" y="586.6666666666666" opacity="0.15"></rect><circle r="3.75" cx="53.333333333333336" cy="586.6666666666666" fill="hsla(0, 0%, 100%, 1.00)" stroke="none"></circle><rect width="53.333333333333336" height="53.333333333333336" x="106.66666666666667" y="586.6666666666666" opacity="0.15"></rect><circle r="3.75" cx="106.66666666666667" cy="586.6666666666666" fill="hsla(0, 0%, 100%, 1.00)" stroke="none"></circle><rect width="53.333333333333336" height="53.333333333333336" x="160" y="586.6666666666666" opacity="0.15"></rect><circle r="3.75" cx="160" cy="586.6666666666666" fill="hsla(0, 0%, 100%, 1.00)" stroke="none"></circle><rect width="53.333333333333336" height="53.333333333333336" x="213.33333333333334" y="586.6666666666666" opacity="0.15"></rect><circle r="3.75" cx="213.33333333333334" cy="586.6666666666666" fill="hsla(0, 0%, 100%, 1.00)" stroke="none"></circle><rect width="53.333333333333336" height="53.333333333333336" x="266.6666666666667" y="586.6666666666666" opacity="0.15"></rect><circle r="3.75" cx="266.6666666666667" cy="586.6666666666666" fill="hsla(0, 0%, 100%, 1.00)" stroke="none"></circle><rect width="53.333333333333336" height="53.333333333333336" x="320" y="586.6666666666666" opacity="0.15"></rect><circle r="3.75" cx="320" cy="586.6666666666666" fill="hsla(0, 0%, 100%, 1.00)" stroke="none"></circle><rect width="53.333333333333336" height="53.333333333333336" x="373.3333333333333" y="586.6666666666666" opacity="0.15"></rect><circle r="3.75" cx="373.3333333333333" cy="586.6666666666666" fill="hsla(0, 0%, 100%, 1.00)" stroke="none"></circle><rect width="53.333333333333336" height="53.333333333333336" x="426.66666666666663" y="586.6666666666666" opacity="0.15"></rect><circle r="3.75" cx="426.66666666666663" cy="586.6666666666666" fill="hsla(0, 0%, 100%, 1.00)" stroke="none"></circle><rect width="53.333333333333336" height="53.333333333333336" x="479.99999999999994" y="586.6666666666666" opacity="0.15"></rect><circle r="3.75" cx="479.99999999999994" cy="586.6666666666666" fill="hsla(0, 0%, 100%, 1.00)" stroke="none"></circle><rect width="53.333333333333336" height="53.333333333333336" x="533.3333333333333" y="586.6666666666666" opacity="0.15"></rect><circle r="3.75" cx="533.3333333333333" cy="586.6666666666666" fill="hsla(0, 0%, 100%, 1.00)" stroke="none"></circle><rect width="53.333333333333336" height="53.333333333333336" x="586.6666666666666" y="586.6666666666666" opacity="0.15"></rect><circle r="3.75" cx="586.6666666666666" cy="586.6666666666666" fill="hsla(0, 0%, 100%, 1.00)" stroke="none"></circle><rect width="53.333333333333336" height="53.333333333333336" x="640" y="586.6666666666666" opacity="0.15"></rect><circle r="3.75" cx="640" cy="586.6666666666666" fill="hsla(0, 0%, 100%, 1.00)" stroke="none"></circle><rect width="53.333333333333336" height="53.333333333333336" x="693.3333333333334" y="586.6666666666666" opacity="0.15"></rect><circle r="3.75" cx="693.3333333333334" cy="586.6666666666666" fill="hsla(0, 0%, 100%, 1.00)" stroke="none"></circle><rect width="53.333333333333336" height="53.333333333333336" x="746.6666666666667" y="586.6666666666666" opacity="0.15"></rect><circle r="3.75" cx="746.6666666666667" cy="586.6666666666666" fill="hsla(0, 0%, 100%, 1.00)" stroke="none"></circle><rect width="53.333333333333336" height="53.333333333333336" x="800.0000000000001" y="586.6666666666666" opacity="0.15"></rect><circle r="3.75" cx="800.0000000000001" cy="586.6666666666666" fill="hsla(0, 0%, 100%, 1.00)" stroke="none"></circle><rect width="53.333333333333336" height="53.333333333333336" x="0" y="640" opacity="0.15"></rect><circle r="3.75" cx="0" cy="640" fill="hsla(0, 0%, 100%, 1.00)" stroke="none"></circle><rect width="53.333333333333336" height="53.333333333333336" x="53.333333333333336" y="640" opacity="0.15"></rect><circle r="3.75" cx="53.333333333333336" cy="640" fill="hsla(0, 0%, 100%, 1.00)" stroke="none"></circle><rect width="53.333333333333336" height="53.333333333333336" x="106.66666666666667" y="640" opacity="0.15"></rect><circle r="3.75" cx="106.66666666666667" cy="640" fill="hsla(0, 0%, 100%, 1.00)" stroke="none"></circle><rect width="53.333333333333336" height="53.333333333333336" x="160" y="640" opacity="0.15"></rect><circle r="3.75" cx="160" cy="640" fill="hsla(0, 0%, 100%, 1.00)" stroke="none"></circle><rect width="53.333333333333336" height="53.333333333333336" x="213.33333333333334" y="640" opacity="0.15"></rect><circle r="3.75" cx="213.33333333333334" cy="640" fill="hsla(0, 0%, 100%, 1.00)" stroke="none"></circle><rect width="53.333333333333336" height="53.333333333333336" x="266.6666666666667" y="640" opacity="0.15"></rect><circle r="3.75" cx="266.6666666666667" cy="640" fill="hsla(0, 0%, 100%, 1.00)" stroke="none"></circle><rect width="53.333333333333336" height="53.333333333333336" x="320" y="640" opacity="0.15"></rect><circle r="3.75" cx="320" cy="640" fill="hsla(0, 0%, 100%, 1.00)" stroke="none"></circle><rect width="53.333333333333336" height="53.333333333333336" x="373.3333333333333" y="640" opacity="0.15"></rect><circle r="3.75" cx="373.3333333333333" cy="640" fill="hsla(0, 0%, 100%, 1.00)" stroke="none"></circle><rect width="53.333333333333336" height="53.333333333333336" x="426.66666666666663" y="640" opacity="0.15"></rect><circle r="3.75" cx="426.66666666666663" cy="640" fill="hsla(0, 0%, 100%, 1.00)" stroke="none"></circle><rect width="53.333333333333336" height="53.333333333333336" x="479.99999999999994" y="640" opacity="0.15"></rect><circle r="3.75" cx="479.99999999999994" cy="640" fill="hsla(0, 0%, 100%, 1.00)" stroke="none"></circle><rect width="53.333333333333336" height="53.333333333333336" x="533.3333333333333" y="640" opacity="0.15"></rect><circle r="3.75" cx="533.3333333333333" cy="640" fill="hsla(0, 0%, 100%, 1.00)" stroke="none"></circle><rect width="53.333333333333336" height="53.333333333333336" x="586.6666666666666" y="640" opacity="0.15"></rect><circle r="3.75" cx="586.6666666666666" cy="640" fill="hsla(0, 0%, 100%, 1.00)" stroke="none"></circle><rect width="53.333333333333336" height="53.333333333333336" x="640" y="640" opacity="0.15"></rect><circle r="3.75" cx="640" cy="640" fill="hsla(0, 0%, 100%, 1.00)" stroke="none"></circle><rect width="53.333333333333336" height="53.333333333333336" x="693.3333333333334" y="640" opacity="0.15"></rect><circle r="3.75" cx="693.3333333333334" cy="640" fill="hsla(0, 0%, 100%, 1.00)" stroke="none"></circle><rect width="53.333333333333336" height="53.333333333333336" x="746.6666666666667" y="640" opacity="0.15"></rect><circle r="3.75" cx="746.6666666666667" cy="640" fill="hsla(0, 0%, 100%, 1.00)" stroke="none"></circle><rect width="53.333333333333336" height="53.333333333333336" x="800.0000000000001" y="640" opacity="0.15"></rect><circle r="3.75" cx="800.0000000000001" cy="640" fill="hsla(0, 0%, 100%, 1.00)" stroke="none"></circle><rect width="53.333333333333336" height="53.333333333333336" x="0" y="693.3333333333334" opacity="0.15"></rect><circle r="3.75" cx="0" cy="693.3333333333334" fill="hsla(0, 0%, 100%, 1.00)" stroke="none"></circle><rect width="53.333333333333336" height="53.333333333333336" x="53.333333333333336" y="693.3333333333334" opacity="0.15"></rect><circle r="3.75" cx="53.333333333333336" cy="693.3333333333334" fill="hsla(0, 0%, 100%, 1.00)" stroke="none"></circle><rect width="53.333333333333336" height="53.333333333333336" x="106.66666666666667" y="693.3333333333334" opacity="0.15"></rect><circle r="3.75" cx="106.66666666666667" cy="693.3333333333334" fill="hsla(0, 0%, 100%, 1.00)" stroke="none"></circle><rect width="53.333333333333336" height="53.333333333333336" x="160" y="693.3333333333334" opacity="0.15"></rect><circle r="3.75" cx="160" cy="693.3333333333334" fill="hsla(0, 0%, 100%, 1.00)" stroke="none"></circle><rect width="53.333333333333336" height="53.333333333333336" x="213.33333333333334" y="693.3333333333334" opacity="0.15"></rect><circle r="3.75" cx="213.33333333333334" cy="693.3333333333334" fill="hsla(0, 0%, 100%, 1.00)" stroke="none"></circle><rect width="53.333333333333336" height="53.333333333333336" x="266.6666666666667" y="693.3333333333334" opacity="0.15"></rect><circle r="3.75" cx="266.6666666666667" cy="693.3333333333334" fill="hsla(0, 0%, 100%, 1.00)" stroke="none"></circle><rect width="53.333333333333336" height="53.333333333333336" x="320" y="693.3333333333334" opacity="0.15"></rect><circle r="3.75" cx="320" cy="693.3333333333334" fill="hsla(0, 0%, 100%, 1.00)" stroke="none"></circle><rect width="53.333333333333336" height="53.333333333333336" x="373.3333333333333" y="693.3333333333334" opacity="0.15"></rect><circle r="3.75" cx="373.3333333333333" cy="693.3333333333334" fill="hsla(0, 0%, 100%, 1.00)" stroke="none"></circle><rect width="53.333333333333336" height="53.333333333333336" x="426.66666666666663" y="693.3333333333334" opacity="0.15"></rect><circle r="3.75" cx="426.66666666666663" cy="693.3333333333334" fill="hsla(0, 0%, 100%, 1.00)" stroke="none"></circle><rect width="53.333333333333336" height="53.333333333333336" x="479.99999999999994" y="693.3333333333334" opacity="0.15"></rect><circle r="3.75" cx="479.99999999999994" cy="693.3333333333334" fill="hsla(0, 0%, 100%, 1.00)" stroke="none"></circle><rect width="53.333333333333336" height="53.333333333333336" x="533.3333333333333" y="693.3333333333334" opacity="0.15"></rect><circle r="3.75" cx="533.3333333333333" cy="693.3333333333334" fill="hsla(0, 0%, 100%, 1.00)" stroke="none"></circle><rect width="53.333333333333336" height="53.333333333333336" x="586.6666666666666" y="693.3333333333334" opacity="0.15"></rect><circle r="3.75" cx="586.6666666666666" cy="693.3333333333334" fill="hsla(0, 0%, 100%, 1.00)" stroke="none"></circle><rect width="53.333333333333336" height="53.333333333333336" x="640" y="693.3333333333334" opacity="0.15"></rect><circle r="3.75" cx="640" cy="693.3333333333334" fill="hsla(0, 0%, 100%, 1.00)" stroke="none"></circle><rect width="53.333333333333336" height="53.333333333333336" x="693.3333333333334" y="693.3333333333334" opacity="0.15"></rect><circle r="3.75" cx="693.3333333333334" cy="693.3333333333334" fill="hsla(0, 0%, 100%, 1.00)" stroke="none"></circle><rect width="53.333333333333336" height="53.333333333333336" x="746.6666666666667" y="693.3333333333334" opacity="0.15"></rect><circle r="3.75" cx="746.6666666666667" cy="693.3333333333334" fill="hsla(0, 0%, 100%, 1.00)" stroke="none"></circle><rect width="53.333333333333336" height="53.333333333333336" x="800.0000000000001" y="693.3333333333334" opacity="0.15"></rect><circle r="3.75" cx="800.0000000000001" cy="693.3333333333334" fill="hsla(0, 0%, 100%, 1.00)" stroke="none"></circle><rect width="53.333333333333336" height="53.333333333333336" x="0" y="746.6666666666667" opacity="0.15"></rect><circle r="3.75" cx="0" cy="746.6666666666667" fill="hsla(0, 0%, 100%, 1.00)" stroke="none"></circle><rect width="53.333333333333336" height="53.333333333333336" x="53.333333333333336" y="746.6666666666667" opacity="0.15"></rect><circle r="3.75" cx="53.333333333333336" cy="746.6666666666667" fill="hsla(0, 0%, 100%, 1.00)" stroke="none"></circle><rect width="53.333333333333336" height="53.333333333333336" x="106.66666666666667" y="746.6666666666667" opacity="0.15"></rect><circle r="3.75" cx="106.66666666666667" cy="746.6666666666667" fill="hsla(0, 0%, 100%, 1.00)" stroke="none"></circle><rect width="53.333333333333336" height="53.333333333333336" x="160" y="746.6666666666667" opacity="0.15"></rect><circle r="3.75" cx="160" cy="746.6666666666667" fill="hsla(0, 0%, 100%, 1.00)" stroke="none"></circle><rect width="53.333333333333336" height="53.333333333333336" x="213.33333333333334" y="746.6666666666667" opacity="0.15"></rect><circle r="3.75" cx="213.33333333333334" cy="746.6666666666667" fill="hsla(0, 0%, 100%, 1.00)" stroke="none"></circle><rect width="53.333333333333336" height="53.333333333333336" x="266.6666666666667" y="746.6666666666667" opacity="0.15"></rect><circle r="3.75" cx="266.6666666666667" cy="746.6666666666667" fill="hsla(0, 0%, 100%, 1.00)" stroke="none"></circle><rect width="53.333333333333336" height="53.333333333333336" x="320" y="746.6666666666667" opacity="0.15"></rect><circle r="3.75" cx="320" cy="746.6666666666667" fill="hsla(0, 0%, 100%, 1.00)" stroke="none"></circle><rect width="53.333333333333336" height="53.333333333333336" x="373.3333333333333" y="746.6666666666667" opacity="0.15"></rect><circle r="3.75" cx="373.3333333333333" cy="746.6666666666667" fill="hsla(0, 0%, 100%, 1.00)" stroke="none"></circle><rect width="53.333333333333336" height="53.333333333333336" x="426.66666666666663" y="746.6666666666667" opacity="0.15"></rect><circle r="3.75" cx="426.66666666666663" cy="746.6666666666667" fill="hsla(0, 0%, 100%, 1.00)" stroke="none"></circle><rect width="53.333333333333336" height="53.333333333333336" x="479.99999999999994" y="746.6666666666667" opacity="0.15"></rect><circle r="3.75" cx="479.99999999999994" cy="746.6666666666667" fill="hsla(0, 0%, 100%, 1.00)" stroke="none"></circle><rect width="53.333333333333336" height="53.333333333333336" x="533.3333333333333" y="746.6666666666667" opacity="0.15"></rect><circle r="3.75" cx="533.3333333333333" cy="746.6666666666667" fill="hsla(0, 0%, 100%, 1.00)" stroke="none"></circle><rect width="53.333333333333336" height="53.333333333333336" x="586.6666666666666" y="746.6666666666667" opacity="0.15"></rect><circle r="3.75" cx="586.6666666666666" cy="746.6666666666667" fill="hsla(0, 0%, 100%, 1.00)" stroke="none"></circle><rect width="53.333333333333336" height="53.333333333333336" x="640" y="746.6666666666667" opacity="0.15"></rect><circle r="3.75" cx="640" cy="746.6666666666667" fill="hsla(0, 0%, 100%, 1.00)" stroke="none"></circle><rect width="53.333333333333336" height="53.333333333333336" x="693.3333333333334" y="746.6666666666667" opacity="0.15"></rect><circle r="3.75" cx="693.3333333333334" cy="746.6666666666667" fill="hsla(0, 0%, 100%, 1.00)" stroke="none"></circle><rect width="53.333333333333336" height="53.333333333333336" x="746.6666666666667" y="746.6666666666667" opacity="0.15"></rect><circle r="3.75" cx="746.6666666666667" cy="746.6666666666667" fill="hsla(0, 0%, 100%, 1.00)" stroke="none"></circle><rect width="53.333333333333336" height="53.333333333333336" x="800.0000000000001" y="746.6666666666667" opacity="0.15"></rect><circle r="3.75" cx="800.0000000000001" cy="746.6666666666667" fill="hsla(0, 0%, 100%, 1.00)" stroke="none"></circle><rect width="53.333333333333336" height="53.333333333333336" x="0" y="800.0000000000001" opacity="0.15"></rect><circle r="3.75" cx="0" cy="800.0000000000001" fill="hsla(0, 0%, 100%, 1.00)" stroke="none"></circle><rect width="53.333333333333336" height="53.333333333333336" x="53.333333333333336" y="800.0000000000001" opacity="0.15"></rect><circle r="3.75" cx="53.333333333333336" cy="800.0000000000001" fill="hsla(0, 0%, 100%, 1.00)" stroke="none"></circle><rect width="53.333333333333336" height="53.333333333333336" x="106.66666666666667" y="800.0000000000001" opacity="0.15"></rect><circle r="3.75" cx="106.66666666666667" cy="800.0000000000001" fill="hsla(0, 0%, 100%, 1.00)" stroke="none"></circle><rect width="53.333333333333336" height="53.333333333333336" x="160" y="800.0000000000001" opacity="0.15"></rect><circle r="3.75" cx="160" cy="800.0000000000001" fill="hsla(0, 0%, 100%, 1.00)" stroke="none"></circle><rect width="53.333333333333336" height="53.333333333333336" x="213.33333333333334" y="800.0000000000001" opacity="0.15"></rect><circle r="3.75" cx="213.33333333333334" cy="800.0000000000001" fill="hsla(0, 0%, 100%, 1.00)" stroke="none"></circle><rect width="53.333333333333336" height="53.333333333333336" x="266.6666666666667" y="800.0000000000001" opacity="0.15"></rect><circle r="3.75" cx="266.6666666666667" cy="800.0000000000001" fill="hsla(0, 0%, 100%, 1.00)" stroke="none"></circle><rect width="53.333333333333336" height="53.333333333333336" x="320" y="800.0000000000001" opacity="0.15"></rect><circle r="3.75" cx="320" cy="800.0000000000001" fill="hsla(0, 0%, 100%, 1.00)" stroke="none"></circle><rect width="53.333333333333336" height="53.333333333333336" x="373.3333333333333" y="800.0000000000001" opacity="0.15"></rect><circle r="3.75" cx="373.3333333333333" cy="800.0000000000001" fill="hsla(0, 0%, 100%, 1.00)" stroke="none"></circle><rect width="53.333333333333336" height="53.333333333333336" x="426.66666666666663" y="800.0000000000001" opacity="0.15"></rect><circle r="3.75" cx="426.66666666666663" cy="800.0000000000001" fill="hsla(0, 0%, 100%, 1.00)" stroke="none"></circle><rect width="53.333333333333336" height="53.333333333333336" x="479.99999999999994" y="800.0000000000001" opacity="0.15"></rect><circle r="3.75" cx="479.99999999999994" cy="800.0000000000001" fill="hsla(0, 0%, 100%, 1.00)" stroke="none"></circle><rect width="53.333333333333336" height="53.333333333333336" x="533.3333333333333" y="800.0000000000001" opacity="0.15"></rect><circle r="3.75" cx="533.3333333333333" cy="800.0000000000001" fill="hsla(0, 0%, 100%, 1.00)" stroke="none"></circle><rect width="53.333333333333336" height="53.333333333333336" x="586.6666666666666" y="800.0000000000001" opacity="0.15"></rect><circle r="3.75" cx="586.6666666666666" cy="800.0000000000001" fill="hsla(0, 0%, 100%, 1.00)" stroke="none"></circle><rect width="53.333333333333336" height="53.333333333333336" x="640" y="800.0000000000001" opacity="0.15"></rect><circle r="3.75" cx="640" cy="800.0000000000001" fill="hsla(0, 0%, 100%, 1.00)" stroke="none"></circle><rect width="53.333333333333336" height="53.333333333333336" x="693.3333333333334" y="800.0000000000001" opacity="0.15"></rect><circle r="3.75" cx="693.3333333333334" cy="800.0000000000001" fill="hsla(0, 0%, 100%, 1.00)" stroke="none"></circle><rect width="53.333333333333336" height="53.333333333333336" x="746.6666666666667" y="800.0000000000001" opacity="0.15"></rect><circle r="3.75" cx="746.6666666666667" cy="800.0000000000001" fill="hsla(0, 0%, 100%, 1.00)" stroke="none"></circle><rect width="53.333333333333336" height="53.333333333333336" x="800.0000000000001" y="800.0000000000001" opacity="0.15"></rect><circle r="3.75" cx="800.0000000000001" cy="800.0000000000001" fill="hsla(0, 0%, 100%, 1.00)" stroke="none"></circle></g></svg>