<svg xmlns="http://www.w3.org/2000/svg" version="1.1" xmlns:xlink="http://www.w3.org/1999/xlink" xmlns:svgjs="http://svgjs.dev/svgjs" viewBox="0 0 800 800"><defs><linearGradient x1="50%" y1="0%" x2="50%" y2="100%" id="wwwhirl-grad"><stop stop-color="hsl(37, 99%, 67%)" stop-opacity="1" offset="45%"></stop><stop stop-color="hsl(316, 73%, 52%)" stop-opacity="1" offset="100%"></stop></linearGradient></defs><g stroke-width="2" stroke="url(#wwwhirl-grad)" fill="none" stroke-linecap="round"><path d="M-326.00006362915025 459.48657857710555C-298.5000628662108 432.2615778217954 -249.0000614929197 317.6690746426267 -194.00005996704076 328.80657495161716C-139.00005844116183 339.94407526060763 -117.00005783081019 509.234079957263 -62.00005630493132 512.9465800602599C-7.000054779052391 516.6590801632567 14.999945831299272 354.8765756748838 69.9999473571782 346.62657544600194C124.99994888305719 338.3765752171201 146.99994949340885 474.17157898451524 201.99995101928778 473.3465789616271C256.9999525451667 472.5215789387389 278.99995315551826 345.14157540480323 333.9999546813972 342.66657533613864C388.9999562072761 340.1915752674741 410.9999568176278 473.0165789524718 465.9999583435066 461.4665786320372C520.9999598693856 449.9165783116026 542.9999604797373 279.801573592059 597.9999620056161 287.2265737980527C652.9999635314948 294.6515740040463 674.9999641418467 484.31907926603986 729.9999656677255 497.10657962080677C784.9999671936046 509.89407997557356 806.9999678039562 353.5565756382627 861.9999693298353 348.6065755009336C916.9999708557143 343.6565753636045 938.9999714660657 465.9215787556334 993.9999729919446 473.3465789616271C1048.9999745178234 480.7715791676207 1098.4999758911144 402.8090770046873 1125.999976654054 384.24657648970316 " transform="rotate(115.5, 400, 400)"></path><path d="M-304.00006378173816 457.6839401874584C-277.33339637525137 431.2839394550365 -229.3333950435752 320.1639363722062 -176.00006023060166 330.9639366718333C-122.66672541762816 341.76393697146045 -101.33339149243875 505.923941525793 -48.00005667946522 509.52394162566867C5.333278133508259 513.1239417255443 26.66661205869775 356.2439373731828 79.99994687167128 348.24393715123676C133.33328168464482 340.2439369292907 154.66661560983425 471.9239405825223 207.99995042280773 471.1239405603277C261.3332852357813 470.3239405381331 282.66661916097064 346.8039371112865 335.9999539739441 344.4039370447026C389.3332887869177 342.0039369781188 410.66662271210714 470.8039405514499 463.99995752508073 459.6039402407255C517.3332923380541 448.403939930001 538.6666262632436 283.4439353534739 591.9999610762171 290.64393555322533C645.3332958891905 297.8439357529768 666.6666298143798 481.7639408555159 719.9999646273536 494.16394119953225C773.3332994403272 506.56394154354865 794.6666333655166 354.9639373376714 847.99996817849 350.1639372045038C901.3333029914638 345.3639370713362 922.666636916653 463.9239403605763 975.9999717296266 471.1239405603277C1029.3333065426 478.32394076007915 1077.333307874276 402.7239386626892 1103.999975280763 384.72393816331066 " transform="rotate(112, 400, 400)"></path><path d="M-282.000063934326 455.8813170566003C-256.16672988429195 430.3063163470666 -209.66672859423068 322.65881336057475 -158.00006049416257 333.12131365083854C-106.33339239409449 343.58381394110233 -85.6667251540672 502.6138183531119 -34.00005705399917 506.10131844986654C17.666611046068965 509.58881854662116 38.33327828609623 357.61131433027083 89.99994638616437 349.8613141152606C141.66661448623245 342.11131390025037 162.3332817262597 469.6763174393185 213.9999498263278 468.9013174178175C265.66661792639593 468.1263173963165 286.33328516642314 348.4663140765588 337.99995326649116 346.14131401205566C389.6666213665593 343.8163139475526 410.3332886065866 468.5913174092171 461.99995670665464 457.7413171082028C513.6666248067228 446.89131680718845 534.3332920467501 287.08631237367786 585.9999601468182 294.06131256718703C637.6666282468861 301.0363127606962 658.3332954869132 479.20881770378105 709.9999635869815 491.2213180370469C761.6666316870499 503.23381837031275 782.3332989270771 356.3713142958692 833.9999670271452 351.72131416686307C885.6666351272133 347.0713140378569 906.3333023672405 461.92631722430826 957.9999704673085 468.9013174178175C1009.6666385673764 475.8763176113267 1056.1666398574378 402.63881557948014 1081.999973907472 385.2013150957072 " transform="rotate(108.5, 400, 400)"></path><path d="M-260.00006408691394 454.0787091845313C-235.0000633933326 429.32870849788577 -190.00006214488616 325.1537056077324 -140.00006075772347 335.27870588863277C-90.00005937056082 345.4037061695332 -70.00005881569575 499.30371043921997 -20.00005742853307 502.6787105328534C29.999943958629615 506.0537106264869 49.99994451349471 358.9787065461479 99.99994590065734 351.4787063380735C149.99994728782008 343.97870612999907 169.99994784268517 467.4287095549038 219.99994922984786 466.67870953409636C269.99995061701054 465.9287095132889 289.9999511718755 350.12870630062014 339.9999525590382 347.87870623819776C389.9999539462009 345.62870617577545 409.999954501066 466.3787095257734 459.99995588822867 455.87870923446917C509.99995727539124 445.37870894316495 529.9999578302564 290.72870465267084 579.9999592174191 297.4787048399378C629.9999606045817 304.2287050272048 649.9999611594468 476.65370981083527 699.9999625466094 488.2787101333506C749.9999639337723 499.90371045586585 769.9999644886373 357.778706512856 819.9999658758002 353.27870638801136C869.9999672629629 348.7787062631667 889.9999678178278 459.92870934682935 939.9999692049903 466.67870953409636C989.999970592153 473.42870972136325 1034.9999718405995 402.5537077550602 1059.9999725341809 385.67870728689275 " transform="rotate(105, 400, 400)"></path><path d="M-238.00006423950182 452.2760555360951C-213.83339690237318 428.3510548723378 -170.33339569554164 327.6485520785228 -122.00006102128441 337.43605235005987C-73.66672634702715 347.223552621597 -54.33339247732425 495.9935567489608 -6.000057803066966 499.25605683947316C42.333276871190265 502.5185569299855 61.66661074089319 360.3460529856578 109.99994541515048 353.0960527845192C158.3332800894077 345.84605258338064 177.66661395911063 465.18105589412176 225.99994863336792 464.4560558740079C274.33328330762515 463.7310558538941 293.666617177328 351.7910527483143 341.99995185158525 349.6160526879727C390.3332865258425 347.4410526276311 409.66662039554546 464.16605586596245 457.9999550698027 454.01605558436836C506.3332897440599 443.8660553027743 525.666623613763 294.37105115529664 573.9999582880201 300.8960513363214C622.3332929622774 307.42105151734614 641.6666268319802 474.09855614152224 689.9999615062375 485.33605645328703C738.3332961804949 496.5735567650519 757.6666300501977 359.18605295347567 805.9999647244551 354.8360528327925C854.3332993987124 350.4860527121093 873.6666332684154 457.93105569298325 921.9999679426724 464.4560558740079C970.3333026169296 470.9810560550327 1013.8333038237611 402.468554154273 1037.9999711608898 386.1560537017112 " transform="rotate(101.5, 400, 400)"></path><path d="M-216.0000643920897 450.4734858109988C-192.66673041141382 427.3734851701296 -150.66672924619712 330.14348247265303 -104.00006128484532 339.5934827348268C-57.33339332349348 349.0434829970005 -38.666726138952754 492.6834869820415 7.99994182239908 495.83348706943275C54.666609783750914 498.983487156824 73.33327696829173 361.71348334850757 119.9999449296435 354.7134831543048C166.66661289099534 347.71348296010206 185.33328007553615 462.9334861566797 231.99994803688787 462.23348613725943C278.66661599823976 461.5334861178392 297.3332831827805 353.4534831193483 343.9999511441323 351.35348306108745C390.6666191054841 349.2534830028266 409.33328629002483 461.95348612949135 455.9999542513767 452.1534858576074C502.6666222127286 442.35348558572355 521.3332893972694 298.01348158126234 567.9999573586213 304.31348175604484C614.6666253199729 310.61348193082733 633.3332925045137 471.5434863955491 679.9999604658655 482.3934866965634C726.6666284272173 493.2434869975777 745.3332956117581 360.59348331743513 791.9999635731101 356.39348320091347C838.6666315344619 352.1934830843918 857.3332987190026 455.9334859624769 903.9999666803544 462.23348613725943C950.6666346417062 468.53348631204193 992.6666358069228 402.3834844768257 1015.9999697875987 386.6334840398695 " transform="rotate(98, 400, 400)"></path><path d="M-194.00006454467763 448.67081690377347C-171.5000639204544 426.39581628579253 -131.0000627968526 332.6383136846544 -86.00006154840622 341.75081393746484C-41.00006029995981 350.8633141902752 -23.000059800581226 489.37331803299327 21.999941447865126 492.4108181172634C66.99994269631156 495.44831820153354 84.99994319569015 363.08081452922846 129.9999444441366 356.33081434196146C174.99994569258297 349.5808141546945 192.9999461919616 460.68581723710867 237.999947440408 460.010817218382C282.9999486888544 459.33581719965537 300.9999491882329 355.1158143082534 345.99995043667934 353.0908142520733C390.9999516851258 351.06581419589327 408.9999521845044 459.74081721089135 453.99995343295075 450.2908169487176C498.9999546813972 440.8408166865438 516.9999551807758 301.6558128250991 561.9999564292222 307.73081299363935C606.9999576776685 313.8058131621796 624.9999581770469 468.988317467447 669.9999594254934 479.45081775771087C714.9999606739401 489.9133180479746 732.9999611733185 362.00081449926574 777.9999624217651 357.95081438690556C822.9999636702114 353.9008142745454 840.9999641695899 453.9358170498417 885.9999654180363 460.010817218382C930.9999666664828 466.08581738692226 971.4999677900844 402.2983156172495 993.9999684143077 387.1108151958988 " transform="rotate(94.5, 400, 400)"></path><path d="M-172.0000646972655 446.8682090317045C-150.33339742949502 425.4182084366117 -111.3333963475081 335.13320593181203 -68.00006181196713 343.9082061752591C-24.666727276426144 352.68320641870616 -7.333393462209727 486.0632101191013 35.99994107333123 488.9882102002503C79.33327560887221 491.9132102813993 96.66660942308863 364.44820674510555 139.99994395862961 357.9482065647744C183.33327849417066 351.4482063844432 200.66661230838707 458.4382093526939 243.99994684392806 457.7882093346608C287.333281379469 457.1382093166277 304.6666151936854 356.77820653231475 347.9999497292264 354.8282064782154C391.33328426476737 352.8782064241161 408.6666180789838 457.5282093274476 451.9999526145248 448.42820907498395C495.33328715006576 439.3282088225203 512.6666209642822 305.29820510409206 555.9999554998232 311.1482052663901C599.3332900353641 316.99820542868815 616.6666238495803 466.43320957450123 659.9999583851215 476.5082098540145C703.3332929206626 486.5832101335278 720.6666267348788 363.40820671625255 763.9999612704199 359.50820660805385C807.3332958059609 355.60820649985516 824.6666296201774 451.9382091723628 867.9999641557183 457.7882093346608C911.3332986912592 463.6382094969589 950.3332997732462 402.2132077928295 971.9999670410166 387.5882073870844 " transform="rotate(91, 400, 400)"></path><path d="M-150.0000648498534 445.0655706420573C-129.16673093853564 424.44057006985275 -91.6667298981636 337.6280676613915 -50.000062075528035 346.0655678954752C-8.333394252892475 354.5030681295589 8.333272876161743 482.7530716876312 49.99994069879733 485.5655717656591C91.66660852143286 488.37807184368705 108.33327565048717 365.8155684434045 149.9999434731227 359.5655682700092C191.6666112957583 353.31556809661384 208.3332784248126 456.19057095070104 249.99994624744807 455.5655709333615C291.66661407008365 454.940570916022 308.3332811991379 358.440568238798 349.9999490217733 356.5655681867794C391.66661684440896 354.69056813476084 408.33328397346327 455.3155709264257 449.9999517960988 446.56557068367226C491.66661961873433 437.81557044091875 508.33328674778863 308.940566865507 549.9999545704242 314.56556702156274C591.6666223930597 320.19056717761856 608.3332895221138 463.8780711639773 649.9999573447495 473.56557143274006C691.6666251673852 483.2530717015028 708.3332922964393 364.81556841566123 749.9999601190749 361.0655683116241C791.6666279417105 357.31556820758686 808.333295070765 449.9405707773057 849.9999628934002 455.5655709333615C891.6666307160358 461.1905710894173 929.1666317564079 402.1280694508314 949.9999656677255 388.0655690606919 " transform="rotate(87.5, 400, 400)"></path><path d="M-128.0000573730468 443.2629780287774C-108.0000568181817 423.46297747946096 -72.00005581942455 340.1229751673382 -32.00005470969441 348.2229753920586C7.999946400035725 356.32297561677893 23.999946843927773 479.44297903252834 63.99994795365791 482.1429791074351C103.99994906338804 484.8429791823419 119.99994950728012 367.18297591807067 159.9999506170103 361.18297575161114C199.99995172674045 355.1829755851516 215.99995217063253 453.94297832507533 255.99995328036272 453.3429783084294C295.9999543900928 452.74297829178346 311.9999548339848 360.1029757216484 351.9999559437149 358.30297567171056C391.9999570534451 356.50297562177275 407.99995749733716 453.10297830177103 447.99995860706736 444.7029780687277C487.99995971679755 436.3029778356844 503.9999601606895 312.58297440328903 543.9999612704197 317.9829745531026C583.9999623801498 323.38297470291616 599.9999628240419 461.32297852982055 639.999963933772 470.62297878783284C679.9999650435022 479.92297904584507 695.9999654873943 366.22297589143716 735.9999665971245 362.62297579156143C775.9999677068547 359.0229756916857 791.9999681507467 447.9429781586158 831.9999692604767 453.3429783084294C871.9999703702067 458.742978458243 907.9999713689638 402.04297688520046 927.999971923829 388.54297651066656 " transform="rotate(84, 400, 400)"></path><path d="M-106.00002700805653 441.46033963913027C-86.83335980964418 422.48533911270204 -52.3333588525019 342.6178368969177 -14.000024455677192 350.38033711227473C24.33330994114752 358.14283732763175 39.6666436998774 476.1328406010582 77.99997809670211 478.7203406728439C116.33331249352682 481.3078407446296 131.66664625225678 368.55033761636963 169.99998064908146 362.8003374568459C208.3333150459062 357.05033729732224 223.6666488046361 451.69533992308243 261.99998320146085 451.1203399071301C300.3333175982856 450.5453398911777 315.6666513570154 361.76533742813166 353.99998575384006 360.04033738027454C392.3333201506648 358.31533733241747 407.66665390939477 450.89033990074915 445.9999883062195 442.84033967741595C484.33332270304425 434.79033945408275 499.6666564617741 316.2253361647039 537.9999908585988 321.40033630827526C576.3333252554235 326.57533645184657 591.6666590141533 458.7678401192966 629.9999934109782 467.6803403665584C668.3333278078029 476.5928406138201 683.6666615665329 367.63033759084584 721.9999959633576 364.18033749513165C760.3333303601823 360.7303373994174 775.6666641189122 445.94533976355876 813.9999985157368 451.1203399071301C852.3333329125614 456.29534005070144 886.8333338697037 401.9578385432024 906.000001068116 389.020338184274 " transform="rotate(80.5, 400, 400)"></path><path d="M-84.00002716064444 439.65770887887766C-65.66669331868479 421.50770837533764 -32.6666924031574 345.11270625589174 3.999975280761902 352.5377064618854C40.66664296468119 359.96270666787905 55.333310038248925 472.82270979898266 91.99997772216821 475.2977098676472C128.66664540608747 477.7727099363118 143.3333124796552 369.9177069440632 179.99998016357455 364.41770679147527C216.66664784749383 358.91770663888735 231.33331492106157 449.4477091504841 267.9999826049809 448.89770913522534C304.66665028890014 448.34770911996657 319.3333173624679 363.42770676400943 355.99998504638717 361.77770671823305C392.6666527303064 360.1277066724567 407.33331980387425 448.6777091291218 443.99998748779353 440.97770891549874C480.6666551717128 433.27770870187567 495.33332224528056 319.86770555551334 531.9999899291998 324.8177056928424C568.666657613119 329.7677058301715 583.3333246866868 456.2127093381672 619.9999923706062 464.73770957467843C656.6666600545256 473.26270981118967 671.3333271280932 369.0377069196491 707.9999948120125 365.73770682809635C744.6666624959319 362.43770673654365 759.3333295694996 443.94770899789626 795.9999972534189 448.89770913522534C832.6666649373379 453.8477092725544 865.6666658528653 401.8727078305988 883.999999694825 389.49770748727605 " transform="rotate(77, 400, 400)"></path><path d="M-61.9999967956542 437.85510100680864C-44.49999631014727 420.5301005261568 -12.999995436234755 347.60759850304936 22.00000553477912 354.69509869967965C57.00000650579298 361.78259889631 71.00000689419855 469.5126018850907 106.00000786521241 471.87510195063413C141.00000883622624 474.23760201617756 155.00000922463187 371.2850991599403 190.0000101956457 366.03509901428816C225.0000111666596 360.7850988686361 239.00001155506516 447.20010126606934 274.00001252607905 446.67510125150415C309.0000134970929 446.15010123693895 323.0000138854984 365.0900989880708 358.00001485651234 363.51509894437515C393.0000158275262 361.9400989006796 407.00001621593174 446.46510124567806 442.00001718694557 439.1151010417652C477.0000181579595 431.76510083785223 491.00001854636514 323.5100978345063 526.000019517379 328.2350979655932C561.0000204883927 332.96009809668004 575.0000208767983 453.6576014452214 610.0000218478123 461.79510167098215C645.0000228188261 469.9326018967429 659.0000232072317 370.4450991366359 694.0000241782457 367.2950990492447C729.0000251492595 364.1450989618534 743.000025537665 441.95010112041723 778.0000265086788 446.67510125150415C813.0000274796927 451.400101382591 844.5000283536051 401.7876000061789 862.0000288391121 389.9750996784617 " transform="rotate(73.5, 400, 400)"></path><path d="M-39.9999969482421 436.05245498776696C-23.333329819187867 419.5524545300033 6.666671013109749 350.1024526032343 40.000005271218185 356.8524527905013C73.33333952932665 363.6024529777683 86.66667323257002 466.20245582422604 120.00000749067848 468.4524558866484C153.3333417487869 470.7024559490707 166.66667545203035 372.6524532288447 200.00000971013878 367.65245309012846C233.33334396824722 362.65245295141216 246.66667767149067 444.9524552346819 280.0000119295991 444.4524552208103C313.33334618770755 443.9524552069387 326.6666798909509 366.7524530651595 360.0000141490593 365.2524530235446C393.33334840716776 363.75245298192976 406.6666821104112 444.25245521526165 440.0000163685197 437.2524550210589C473.3333506266281 430.2524548268561 486.6666843298715 327.15245196652666 520.00001858798 331.6524520913713C553.3333528460884 336.1524522162159 566.6666865493316 451.1024554053029 600.0000208074403 458.85245562031315C633.3333550655487 466.6024558353233 646.666688768792 371.8524532066501 680.0000230269006 368.85245312342033C713.3333572850091 365.8524530401906 726.6666909882525 439.95245509596566 760.0000252463608 444.4524552208103C793.3333595044692 448.9524553456549 823.3333603367668 401.70245403478623 840.0000274658211 390.4524537226746 " transform="rotate(70, 400, 400)"></path><path d="M-17.999997100829987 434.2498547450925C-2.1666633282284806 418.574854310217 26.333337462454267 352.5973524797865 58.00000500765728 359.0098526576901C89.66667255286029 365.4223528355937 102.33333957094152 462.89235553972867 134.00000711614456 465.0298555990298C165.66667466134757 467.1673556583311 178.33334167942883 374.0198530741163 210.00000922463187 369.2698529423359C241.66667676983485 364.51985281055545 254.33334378791608 442.7048549796617 286.0000113331191 442.2298549664837C317.66667887832216 441.75485495330565 330.33334589640333 368.4148529186154 362.00001344160637 366.98985287908124C393.66668098680935 365.56485283954714 406.33334800489064 442.0398549612124 438.0000155500936 435.3898547767198C469.66668309529666 428.7398545922272 482.33335011337795 330.7948518749142 514.000017658581 335.06985199351664C545.6666852037839 339.34485211211904 558.3333522218651 448.54735514175167 590.0000197670682 455.90985534601134C621.6666873122713 463.2723555502711 634.3333543303524 373.25985305303146 666.0000218755555 370.4098529739632C697.6666894207586 367.5598528948949 710.3333564388398 437.9548548478813 742.0000239840429 442.2298549664837C773.6666915292458 446.5048550850861 802.1666923199285 401.61735383976077 818.00002609253 390.92985354325475 " transform="rotate(66.5, 400, 400)"></path><path d="M4.000002746582112 432.44721254074807C19.00000316273092 417.59721212876076 46.00000391179877 355.0922103946687 76.00000474409637 361.167210563209C106.00000557639396 367.24221073174925 118.00000590931302 459.58221329356127 148.00000674161063 461.60721334974136C178.00000757390825 463.63221340592145 190.0000079068273 375.387210957718 220.00000873912495 370.8872108328734C250.00000957142254 366.38721070802876 262.0000099043416 440.45721276297155 292.0000107366392 440.0072127504871C322.00001156893677 439.55721273800265 334.00001190185577 370.07721081040137 364.0000127341534 368.72721077294796C394.000013566451 367.3772107354946 406.00001389937006 439.8272127454933 436.00001473166765 433.52721257071084C466.00001556396523 427.2272123959283 478.0000158968844 334.4372098216318 508.000016729182 338.487209933992C538.0000175614796 342.53721004635213 550.0000178943985 445.99221291653043 580.0000187266962 452.96721311003967C610.0000195589939 459.94221330354884 622.0000198919129 374.6672109377429 652.0000207242106 371.9672108628361C682.0000215565082 369.26721078792934 694.0000218894272 435.9572126381269 724.0000227217247 440.0072127504871C754.0000235540223 444.0572128628473 781.0000243030902 401.5322116830654 796.0000247192389 391.407211402165 " transform="rotate(63, 400, 400)"></path><path d="M26.00000259399421 430.6446046686791C40.166669653690306 416.6196042795799 65.66667036114329 357.58710264182633 94.00000448053547 363.32460280100327C122.33333859992763 369.06210296018014 133.66667224768452 456.2721053796693 162.0000063670767 458.1846054327283C190.33334048646887 460.0971054857872 201.6666741342258 376.7546031735951 230.00000825361798 372.5046030556863C258.33334237301017 368.25460293777746 269.66667602076706 438.2096048785568 298.00001014015925 437.7846048667659C326.3333442595514 437.35960485497503 337.66667790730827 371.73960303446273 366.00001202670046 370.46460299909006C394.3333461460926 369.18960296371745 405.66667979384954 437.61460486204953 434.00001391324173 431.6646046969772C462.33334803263386 425.7146045319048 473.66668168039075 338.0796021006248 502.000015799783 341.90460220674277C530.3333499191751 345.7296023128607 541.666683566932 443.43710502358465 570.0000176863242 450.0246052063433C598.3333518057165 456.612105389102 609.6666854534733 376.07460315472974 638.0000195728655 373.52460308398446C666.3333536922578 370.9746030132391 677.6666873400146 433.95960476064795 706.0000214594068 437.7846048667659C734.3333555787988 441.60960497288386 759.8333562862518 401.44710385864545 774.000023345948 391.88460359335056 " transform="rotate(59.5, 400, 400)"></path><path d="M48.00000244140632 428.8419777231237C61.33333614464971 415.6419773569128 85.3333368104878 360.08197581549763 112.00000421697456 365.48197596531116C138.6666716234613 370.88197611512476 149.33333858605602 452.96197839229103 176.00000599254278 454.76197844222884C202.66667339902952 456.5619784921667 213.33334036162427 378.12197631598593 240.000007768111 374.1219762050129C266.6666751745978 370.1219760940399 277.3333421371925 435.96197792065567 304.00000954367925 435.5619779095584C330.66667695016605 435.1619778984611 341.3333439127607 373.40197618503777 368.00001131924745 372.20197615174584C394.66667872573424 371.00197611845397 405.33334568832896 435.40197790511945 432.00001309481576 429.80197774975727C458.66668050130244 424.20197759439503 469.3333474638972 341.72197530613147 496.0000148703839 345.3219754060072C522.6666822768707 348.9219755058829 533.3333492394653 440.8819780571525 560.0000166459522 447.08197822916065C586.666684052439 453.2819784011689 597.3333510150337 377.4819762982302 624.0000184215204 375.0819762316464C650.6666858280073 372.6819761650626 661.3333527906019 431.9619778096827 688.0000201970887 435.5619779095584C714.6666876035754 439.1619780094341 738.6666882694134 401.3619769607391 752.0000219726569 392.36197671104986 " transform="rotate(56, 400, 400)"></path><path d="M70.00000228881842 427.0393545922657C82.50000263560909 414.6643542489429 105.00000325983231 362.5768528038662 130.00000395341365 367.6393529443164C155.00000464699497 372.70185308476664 165.00000492442751 449.65185521960996 190.00000561800886 451.3393552664267C215.0000063115902 453.02685531324346 225.00000658902275 379.48935327307396 250.00000728260406 375.73935316903675C275.00000797618543 371.98935306499953 285.000008253618 433.7143547774519 310.0000089471993 433.3393547670482C335.00000964078066 432.9643547566444 345.00000991821315 375.06435315031007 370.0000106117945 373.9393531190989C395.00001130537584 372.81435308788775 405.0000115828084 433.1893547628867 430.0000122763897 427.9393546172346C455.000012969971 422.6893544715825 465.0000132474036 345.36435232633545 490.00001394098496 348.7393524199689C515.0000146345662 352.1143525136024 525.0000149119987 438.32685490541763 550.0000156055801 444.1393550666753C575.0000162991615 449.9518552279329 585.000016576594 378.889353256428 610.0000172701755 376.6393531940057C635.0000179637568 374.38935313158333 645.0000182411893 429.9643546734147 670.0000189347705 433.3393547670482C695.0000196283519 436.7143548606816 717.5000202525752 401.2768538775301 730.0000205993658 392.8393536434464 " transform="rotate(52.5, 400, 400)"></path><path d="M92.00000213623053 425.23673909080213C103.6666691265685 413.6867387703675 124.66666970917683 365.0717374216293 148.00000368985275 369.79673755271614C171.33333767052864 374.521737683803 180.666671262799 446.34173967632347 204.00000524347493 447.9167397200191C227.33333922415085 449.49173976371475 236.66667281642125 380.8567378595565 260.00000679709717 377.3567377624551C283.33334077777306 373.85673766535376 292.66667437004344 431.4667392636426 316.0000083507193 431.11673925393245C339.3333423313953 430.7667392442223 348.66667592366565 376.7267377449769 372.00000990434154 375.67673771584646C395.3333438850174 374.62673768671607 404.6666774772878 430.9767392500484 428.00001145796375 426.07673911410643C451.3333454386397 421.1767389781645 460.6666790309101 349.0067369759339 484.000013011586 352.1567370633251C507.33334699226185 355.3067371507164 516.6666805845323 435.77173938307726 540.0000145652082 441.19673953358443C563.3333485458841 446.6217396840916 572.6666821381544 380.2967378440203 596.0000161188304 378.19673778575947C619.3333500995063 376.09673772749863 628.6666836917767 427.9667391665412 652.0000176724526 431.11673925393245C675.3333516531285 434.2667393413237 696.3333522357368 401.1917384237156 708.0000192260748 393.31673820523747 " transform="rotate(49, 400, 400)"></path><path d="M114.00000198364263 423.43410451585225C124.83333561752788 412.70910421830587 144.33333615852135 367.56660296590604 166.0000034262918 371.95410308762956C187.6666706940623 376.3416032093531 196.3333376011705 443.03160505955066 218.000004868941 444.4941051001251C239.6666721367115 445.95660514069965 248.3333390438197 382.22410337255275 270.0000063115902 378.9741032823872C291.6666735793607 375.7241031922216 300.33334048646896 429.21910467634694 322.0000077542394 428.8941046673304C343.6666750220099 428.56910465831385 352.3333419291181 378.3891032661574 374.0000091968886 377.4141032391077C395.6666764646591 376.43910321205806 404.3333433717673 428.7641046637238 426.0000106395378 424.21410453749195C447.66667790730827 419.66410441126015 456.3333448144165 352.64910255204603 478.00001208218697 355.5741026331951C499.66667934995746 358.4991027143441 508.33334625706556 433.2166047872506 530.0000135248362 438.25410492700723C551.6666807926067 443.2916050667639 560.3333476997147 381.70410335812625 582.0000149674854 379.75410330402696C603.6666822352558 377.8041032499276 612.3333491423641 425.9691045861814 634.0000164101345 428.8941046673304C655.666683677905 431.81910474847945 675.1666842188985 401.10660389641475 686.0000178527837 393.7941036935422 " transform="rotate(45.5, 400, 400)"></path><path d="M136.00000183105476 421.63147375559964C146.00000210848728 411.7314734809414 164.00000260786584 370.06147232488007 184.00000316273093 374.11147243724025C204.00000371759597 378.16147254960043 212.000003939542 439.7214742574751 232.00000449440708 441.0714742949285C252.00000504927215 442.4214743323819 260.0000052712182 383.5914727002463 280.0000058260833 380.5914726170165C300.0000063809483 377.59147253378677 308.00000660289436 426.9714739037486 328.00000715775946 426.6714738954256C348.00000771262455 426.37147388710264 356.00000793457053 380.0514726020352 376.0000084894356 379.1514725770662C396.00000904430067 378.2514725520973 404.0000092662467 426.55147389209645 424.0000098211118 422.3514737755748C444.0000103759769 418.1514736590531 452.0000105979229 356.2914719428554 472.000011152788 358.99147201776225C492.000011707653 361.691472092669 500.00001192959905 430.66147400612124 520.0000124844642 435.31147413512736C540.0000130393292 439.96147426413347 548.0000132612753 383.1114726869295 568.0000138161404 381.31147263699165C588.0000143710055 379.5114725870538 596.0000145929514 423.97147382051884 616.0000151478165 426.6714738954256C636.0000157026815 429.37147397033243 654.00001620206 401.02147318381117 664.0000164794926 394.2714729965442 " transform="rotate(42, 400, 400)"></path><path d="M157.99998641967778 419.8288582541361C167.1666533406576 410.7538580023661 183.6666537984213 372.55635694264316 201.99998764038094 376.26885704563995C220.33332148234058 379.9813571486368 227.66665501912445 436.4113587141886 245.9999888610841 437.64885874852087C264.33332270304373 438.88635878285316 271.6666562398276 384.95885728672886 289.99999008178725 382.20885721043487C308.3333239237469 379.45885713414094 315.6666574605308 424.7238583899393 333.99999130249046 424.44885838230994C352.3333251444501 424.17385837468055 359.6666586812339 381.713857196702 377.99999252319355 380.8888571738138C396.3333263651532 380.0638571509256 403.6666599019371 424.33885837925817 421.99999374389677 420.48885827244663C440.3333275858564 416.6388581656351 447.6666611226403 359.93385659245394 465.9999949645999 362.4088566611185C484.3333288065595 364.883856729783 491.6666623433434 428.10635848378087 509.9999961853031 432.3688586020365C528.3333300272627 436.6313587202921 535.6666635640465 384.5188572745218 553.9999974060063 382.86885722874547C572.3333312479659 381.2188571829691 579.6666647847499 421.9738583136454 597.9999986267094 424.44885838230994C616.3333324686689 426.9238584509745 632.8333329264326 400.93635772999664 641.9999998474125 394.7488575583353 " transform="rotate(38.5, 400, 400)"></path><path d="M179.9999862670899 418.0262236791862C188.33331983161702 409.77622345030437 203.3333202477658 375.05122248691987 219.99998737682003 378.4262225805534C236.66665450587425 381.8012226741869 243.33332135749595 433.10122409741575 259.9999884865502 434.22622412862694C276.6666556156044 435.3512241598381 283.33332246722614 386.3262227997251 299.99998959628033 383.82622273036696C316.6666567253345 381.32622266100884 323.3333235769563 422.4762238026437 339.9999907060105 422.2262237957079C356.6666578350647 421.9762237887721 363.3333246866864 383.3762227178825 379.9999918157406 382.62622269707504C396.6666589447948 381.8762226762676 403.33332579641655 422.12622379293356 419.9999929254708 418.6262236958322C436.666660054525 415.1262235987308 443.3333269061467 363.57622216856606 459.9999940352009 365.8262222309884C476.6666611642551 368.0762222934107 483.33332801587676 425.5512238879542 499.99999514493106 429.42622399545934C516.6666622739854 433.3012241029644 523.333329125607 385.9262227886278 539.9999962546613 384.4262227470129C556.6666633837156 382.926222705398 563.3333302353371 419.97622373328556 579.9999973643913 422.2262237957079C596.6666644934455 424.4762238581302 611.6666649095944 400.85122320269585 619.9999984741214 395.22622304664003 " transform="rotate(35, 400, 400)"></path><path d="M201.999986114502 416.2236158071172C209.49998632257638 408.7986156011236 222.99998669711033 377.5461147340775 237.99998711325912 380.58361481834766C252.99998752940792 383.62111490261776 258.99998769586745 429.7911161835238 273.99998811201624 430.80361621161387C288.9999885281651 431.8161162397039 294.99998869462456 387.6936150156022 309.9999891107734 385.44361495317986C324.9999895269222 383.19361489075754 330.99998969338174 420.2286159182289 345.99999010953053 420.0036159119867C360.9999905256793 419.77861590574446 366.9999906921388 385.0386149419438 381.99999110828765 384.36361492321714C396.99999152443644 383.68861490449046 402.99999169089597 419.9136159094898 417.99999210704476 416.7636158220986C432.99999252319355 413.6136157347073 438.99999268965314 367.21861444755905 453.99999310580193 369.24361450373914C468.9999935219507 371.26861455991923 474.9999936884102 422.9961159950084 489.99999410455905 426.483616091763C504.9999945207079 429.9711161885176 510.9999946871674 387.3336150056146 525.9999951033162 385.98361496816125C540.9999955194651 384.63361493070784 546.9999956859245 417.9786158558066 561.9999961020733 420.0036159119867C576.9999965182221 422.02861596816683 590.499996892756 400.76611537827586 597.9999971008303 395.70361523782566 " transform="rotate(31.5, 400, 400)"></path><path d="M223.9999859619141 414.4209850468646C230.6666528135358 407.8209848637591 242.66665314645485 380.0409840930515 255.99998684969822 382.74098416795835C269.3333205529416 385.4409842428651 274.66665403423895 426.48098538144825 287.99998773748234 427.38098540641715C301.3333214407257 428.2809854313861 306.6666549220231 389.0609843432957 319.99998862526644 387.06098428780916C333.33332232850984 385.06098423232265 338.6666558098072 417.9809851456306 351.99998951305054 417.78098514008195C365.33332321629393 417.5809851345333 370.6666566975913 386.7009842778216 383.9999904008347 386.10098426117565C397.3333241040781 385.5009842445297 402.66665758537545 417.70098513786246 415.99999128861884 414.90098506018137C429.3333249918621 412.1009849825002 434.66665847315954 370.8609838383685 447.9999921764029 372.6609838883063C461.3333258796463 374.46098393824417 466.6666593609436 420.440985213879 479.99999306418704 423.54098529988306C493.33332676743044 426.6409853858872 498.6666602487278 388.7409843344179 511.99999395197113 387.54098430112595C525.3333276552146 386.3409842678341 530.666661136512 415.9809850901441 543.9999948397553 417.78098514008195C557.3333285429986 419.58098519001976 569.3333288759177 400.68098466567227 575.9999957275394 396.18098454082764 " transform="rotate(28, 400, 400)"></path><path d="M245.9999858093262 412.6183676380524C251.83331930449518 406.84336747783516 262.33331959579937 382.535866803466 273.9999865861373 384.89836686900946C285.66665357647526 387.2608669345529 290.33332037261044 423.1708679308131 301.9999873629484 423.9583679526609C313.6666543532864 424.7458679745087 318.3333211494216 390.42836702242965 329.9999881397595 388.67836697387895C341.66665513009747 386.92836692532825 346.33332192623266 415.73336772447266 357.9999889165706 415.5583677196176C369.66665590690855 415.3833677147625 374.3333227030438 388.3633669651398 385.99998969338174 387.8383669505746C397.6666566837197 387.3133669360094 402.3333234798548 415.48836771767554 413.9999904701928 413.0383676497046C425.6666574605308 410.5883675817336 430.33332425666595 374.5033665806183 441.99999124700395 376.07836662431396C453.66665823734184 377.65336666800954 458.3333250334771 417.88586778419 469.999992023815 420.59836785944356C481.66665901415297 423.31086793469717 486.33332581028816 390.1483670146615 497.99999280062616 389.09836698553113C509.6666597909641 388.0483669564007 514.3333265870992 413.98336767592195 525.9999935774372 415.5583677196176C537.6666605677751 417.13336776331323 548.1666608590793 400.59586730450917 553.9999943542483 396.6583671952701 " transform="rotate(24.5, 400, 400)"></path><path d="M267.9999856567383 410.8157368777998C272.99998579545456 405.8657367404707 281.9999860451438 385.03073616244 291.99998632257643 387.0557362186201C301.9999866000089 389.0807362748002 305.99998671098194 419.8607371287375 315.9999869884145 420.53573714746426C325.99998726584704 421.21073716619094 329.99998737682006 391.79573635012315 339.99998765425255 390.29573630850825C349.9999879316851 388.79573626689336 353.9999880426581 413.4857369518743 363.99998832009067 413.3357369477128C373.9999885975232 413.1857369435513 377.9999887084962 390.02573630101756 387.9999889859287 389.5757362885331C397.9999892633613 389.12573627604866 401.9999893743343 413.27573694604826 411.99998965176684 411.17573688778737C421.9999899291994 409.07573682952653 425.9999900401724 378.1457359714277 435.9999903176049 379.4957360088811C445.99999059503745 380.84573604633454 449.99999070601046 415.3307370030606 459.999990983443 417.6557370675637C469.99999126087556 419.98073713206674 473.9999913718486 391.5557363434648 483.9999916492811 390.6557363184958C493.9999919267137 389.75573629352687 497.99999203768664 411.98573691025945 507.9999923151192 413.3357369477128C517.9999925925517 414.6857369851662 526.999992842241 400.5107365919056 531.9999929809572 397.1357364982721 " transform="rotate(21, 400, 400)"></path><path d="M290.00000076293946 409.0131156542904C294.16666754520304 404.8881155398495 301.66666775327747 387.5256150581572 310.00000131780456 389.21311510497395C318.33333488233166 390.9006151517907 321.6666683081425 416.55061586340514 330.0000018726696 417.1131158790107C338.33333543719675 417.6756158946163 341.6666688630076 393.1631152145598 350.0000024275347 391.9131151798807C358.3333359920618 390.6631151452017 361.66666941787264 411.23811571601914 370.0000029823998 411.11311571255123C378.3333365469269 410.98811570908333 381.66666997273774 391.6881151736385 390.00000353726483 391.3131151632348C398.3333371017919 390.9381151528311 401.66667052760283 411.0631157111641 410.0000040921299 409.31311566261337C418.333337656657 407.56311561406267 421.6666710824679 381.7881148989803 430.00000464699497 382.91311493019145C438.3333382115221 384.03811496140264 441.6666716373329 412.77561575867435 450.00000520186006 414.7131158124269C458.3333387663872 416.65061586617946 461.666672192198 392.96311520901116 470.00000575672516 392.2131151882037C478.3333393212523 391.46311516739627 481.6666727470631 409.98811568134005 490.0000063115902 411.11311571255123C498.3333398761173 412.23811574376236 505.8333400841917 400.42561541604516 510.00000686645524 397.6131153380173 " transform="rotate(17.5, 400, 400)"></path><path d="M312.00000061035155 407.21049538445527C315.33333403616246 403.9104952929025 321.3333342026219 390.0204949075487 328.0000010542436 391.3704949450021C334.6666679058653 392.72049498245553 337.333334646514 413.2404955517471 344.0000014981357 413.6904955642315C350.6666683497574 414.140495576716 353.3333350904061 394.5304950326708 360.0000019420278 393.53049500492756C366.6666687936495 392.5304949771843 369.33333553429816 408.99049543383825 376.0000023859198 408.8904954310639C382.6666692375415 408.7904954282896 385.3333359781902 393.35049499993374 392.0000028298119 393.0504949916108C398.6666696814336 392.7504949832878 401.33333642208225 408.8504954299542 408.00000327370395 407.45049539111363C414.6666701253256 406.05049535227306 417.3333368659743 385.4304947802072 424.000003717596 386.3304948051761C430.6666705692177 387.23049483014506 433.33333730986635 410.22049546796245 440.00000416148805 411.7704955109645C446.66667101310975 413.3204955539665 449.3333377537584 394.37049502823186 456.0000046053801 393.7704950115859C462.6666714570018 393.17049499494 465.3333381976505 407.99049540609496 472.0000050492722 408.8904954310639C478.66667190089385 409.79049545603283 484.6666720673534 400.3404951938591 488.0000054931642 398.0904951314368 " transform="rotate(14, 400, 400)"></path><path d="M334.0000004577637 405.4078712999229C336.5000005271218 402.93287123125833 341.00000065196645 392.51537094224295 346.00000079068275 393.527870970333C351.000000929399 394.54037099842304 353.0000009848855 409.93037142539174 358.0000011236018 410.2678714347551C363.00000126231805 410.6053714441184 365.00000131780456 395.8978710360845 370.0000014565208 395.1478710152771C375.0000015952371 394.39787099446966 377.00000165072356 406.7428713369601 382.00000178943986 406.66787133487935C387.00000192815617 406.5928713327986 389.0000019836426 395.01287101153173 394.00000212235886 394.7878710052895C399.00000226107517 394.5628709990473 401.0000023165617 406.6378713340471 406.0000024552779 405.58787130491663C411.0000025939942 404.53787127578624 413.00000264948073 389.0728708467368 418.000002788197 389.7478708654635C423.0000029269132 390.4228708841902 425.0000029823998 407.66537136255323 430.00000312111604 408.8278713948048C435.0000032598323 409.9903714270563 437.00000331531885 395.77787103275534 442.0000034540351 395.3278710202709C447.00000359275134 394.8778710077864 449.00000364823785 405.9928713161527 454.00000378695415 406.66787133487935C459.0000039256704 407.34287135360603 463.50000405051503 400.25537115697574 466.00000411987315 398.567871110159 " transform="rotate(10.5, 400, 400)"></path><path d="M355.9999964904785 403.6052481690648C357.66666320338396 401.9552481232884 360.6666632866137 395.0102479306115 363.99999671242455 395.6852479493382C367.3333301382354 396.3602479680649 368.66666350855974 406.62024825271067 371.9999969343706 406.8452482589529C375.33333036018144 407.0702482651952 376.6666637305058 397.2652479931726 379.9999971563166 396.7652479793009C383.3333305821275 396.2652479654293 384.6666639524518 404.49524819375625 387.9999973782626 404.4452481923691C391.3333308040735 404.39524819098193 392.66666417439785 396.67524797680403 395.99999760020864 396.52524797264255C399.33333102601955 396.37524796848106 400.6666643963439 404.42524819181426 403.9999978221547 403.725248172394C407.33333124796553 403.0252481529737 408.6666646182899 392.71524786694073 411.9999980441007 393.16524787942524C415.33333146991157 393.6152478919097 416.6666648402359 405.1102482108184 419.99999826604676 405.8852482323194C423.3333316918576 406.66024825382044 424.66666506218195 397.1852479909531 427.9999984879928 396.8852479826301C431.33333191380365 396.58524797430715 432.666665284128 403.99524817988464 435.99999870993884 404.4452481923691C439.33333213574963 404.8952482048536 442.3333322189794 400.1702480737667 443.9999989318849 399.04524804255556 " transform="rotate(7, 400, 400)"></path><path d="M378.0000001525879 401.8026231308581C378.8333335090406 400.97762310796986 380.3333335506555 397.50512301163144 382.0000002635609 397.8426230209948C383.66666697646633 398.1801230303581 384.3333336616285 403.310123172681 386.0000003745339 403.42262317580213C387.66666708743935 403.53512317892324 388.3333337726015 398.632623042912 390.0000004855069 398.38262303597617C391.66666719841237 398.13262302904036 392.33333388357454 402.24762314320384 394.00000059647994 402.22262314251026C395.6666673093854 402.1976231418167 396.33333399454756 398.3376230347277 398.00000070745295 398.26262303264696C399.6666674203584 398.1876230305662 400.3333341055206 402.2126231422328 402.000000818426 401.8626231325227C403.6666675313314 401.51262312281256 404.33333421649354 396.3576229797961 406.000000929399 396.5826229860383C407.66666764230445 396.8076229922805 408.33333432746656 402.55512315173485 410.000001040372 402.9426231624854C411.66666775327747 403.3301231732359 412.3333344384396 398.59262304180226 414.00000115134503 398.4426230376407C415.6666678642505 398.29262303347923 416.3333345494126 401.99762313626803 418.00000126231805 402.22262314251026C419.66666797522345 402.4476231487525 421.16666801683834 400.08512308320906 422.00000137329107 399.52262306760343 " transform="rotate(3.5, 400, 400)"></path></g></svg>